# Tiled2Unity generated file. Do not modify by hand.
# Wavefront file for 'Level11_mesh_0004.obj'

# Vertices (Count = 28)
v -1 -3.5 -0.3333333
v -2 -3.5 -0.3333333
v -2 -2.5 -0.3333333
v -1 -2.5 -0.3333333
v -3 -3.5 -0.3333333
v -4 -3.5 -0.3333333
v -4 -2.5 -0.3333333
v -3 -2.5 -0.3333333
v -5 -3.5 -0.3333333
v -6 -3.5 -0.3333333
v -6 -2.5 -0.3333333
v -5 -2.5 -0.3333333
v 0 -8 -0.8333333
v -1 -8 -0.8333333
v -1 -7 -0.8333333
v 0 -7 -0.8333333
v -2 -8 -0.8333333
v -3 -8 -0.8333333
v -3 -7 -0.8333333
v -2 -7 -0.8333333
v -4 -8 -0.8333333
v -5 -8 -0.8333333
v -5 -7 -0.8333333
v -4 -7 -0.8333333
v -6 -8 -0.8333333
v -7 -8 -0.8333333
v -7 -7 -0.8333333
v -6 -7 -0.8333333

# Texture cooridinates (Count = 4)
vt 0.0001220703 0.0001220703
vt 0.9998779 0.0001220703
vt 0.9998779 0.9998779
vt 0.0001220703 0.9998779

# Normal
vn 0 0 -1

# Mesh description
g Level11_mesh_0004

# Faces
f 1/1/1 2/2/1 3/3/1 4/4/1
f 5/1/1 6/2/1 7/3/1 8/4/1
f 9/1/1 10/2/1 11/3/1 12/4/1
f 13/1/1 14/2/1 15/3/1 16/4/1
f 17/1/1 18/2/1 19/3/1 20/4/1
f 21/1/1 22/2/1 23/3/1 24/4/1
f 25/1/1 26/2/1 27/3/1 28/4/1

