# Tiled2Unity generated file. Do not modify by hand.
# Wavefront file for 'Level11_mesh_0001.obj'

# Vertices (Count = 512)
v -7 -0.5 -0.05555556
v -7.5 -0.5 -0.05555556
v -7.5 0 -0.05555556
v -7 0 -0.05555556
v -7.5 -0.5 -0.05555556
v -8 -0.5 -0.05555556
v -8 0 -0.05555556
v -7.5 0 -0.05555556
v -8 -0.5 -0.05555556
v -8.5 -0.5 -0.05555556
v -8.5 0 -0.05555556
v -8 0 -0.05555556
v -8.5 -0.5 -0.05555556
v -9 -0.5 -0.05555556
v -9 0 -0.05555556
v -8.5 0 -0.05555556
v -7 -1 -0.1111111
v -7.5 -1 -0.1111111
v -7.5 -0.5 -0.1111111
v -7 -0.5 -0.1111111
v -8.5 -1 -0.1111111
v -9 -1 -0.1111111
v -9 -0.5 -0.1111111
v -8.5 -0.5 -0.1111111
v -7 -1.5 -0.1666667
v -7.5 -1.5 -0.1666667
v -7.5 -1 -0.1666667
v -7 -1 -0.1666667
v -8.5 -1.5 -0.1666667
v -9 -1.5 -0.1666667
v -9 -1 -0.1666667
v -8.5 -1 -0.1666667
v -7 -2 -0.2222222
v -7.5 -2 -0.2222222
v -7.5 -1.5 -0.2222222
v -7 -1.5 -0.2222222
v -7.5 -2 -0.2222222
v -8 -2 -0.2222222
v -8 -1.5 -0.2222222
v -7.5 -1.5 -0.2222222
v -8 -2 -0.2222222
v -8.5 -2 -0.2222222
v -8.5 -1.5 -0.2222222
v -8 -1.5 -0.2222222
v -8.5 -2 -0.2222222
v -9 -2 -0.2222222
v -9 -1.5 -0.2222222
v -8.5 -1.5 -0.2222222
v -7 -2.5 -0.2777778
v -7.5 -2.5 -0.2777778
v -7.5 -2 -0.2777778
v -7 -2 -0.2777778
v -7.5 -2.5 -0.2777778
v -8 -2.5 -0.2777778
v -8 -2 -0.2777778
v -7.5 -2 -0.2777778
v -8 -2.5 -0.2777778
v -8.5 -2.5 -0.2777778
v -8.5 -2 -0.2777778
v -8 -2 -0.2777778
v -8.5 -2.5 -0.2777778
v -9 -2.5 -0.2777778
v -9 -2 -0.2777778
v -8.5 -2 -0.2777778
v 0 -3 -0.3333333
v -0.5 -3 -0.3333333
v -0.5 -2.5 -0.3333333
v 0 -2.5 -0.3333333
v -0.5 -3 -0.3333333
v -1 -3 -0.3333333
v -1 -2.5 -0.3333333
v -0.5 -2.5 -0.3333333
v -1 -3 -0.3333333
v -1.5 -3 -0.3333333
v -1.5 -2.5 -0.3333333
v -1 -2.5 -0.3333333
v -1.5 -3 -0.3333333
v -2 -3 -0.3333333
v -2 -2.5 -0.3333333
v -1.5 -2.5 -0.3333333
v -2 -3 -0.3333333
v -2.5 -3 -0.3333333
v -2.5 -2.5 -0.3333333
v -2 -2.5 -0.3333333
v -2.5 -3 -0.3333333
v -3 -3 -0.3333333
v -3 -2.5 -0.3333333
v -2.5 -2.5 -0.3333333
v -3 -3 -0.3333333
v -3.5 -3 -0.3333333
v -3.5 -2.5 -0.3333333
v -3 -2.5 -0.3333333
v -3.5 -3 -0.3333333
v -4 -3 -0.3333333
v -4 -2.5 -0.3333333
v -3.5 -2.5 -0.3333333
v -4 -3 -0.3333333
v -4.5 -3 -0.3333333
v -4.5 -2.5 -0.3333333
v -4 -2.5 -0.3333333
v -4.5 -3 -0.3333333
v -5 -3 -0.3333333
v -5 -2.5 -0.3333333
v -4.5 -2.5 -0.3333333
v -5 -3 -0.3333333
v -5.5 -3 -0.3333333
v -5.5 -2.5 -0.3333333
v -5 -2.5 -0.3333333
v -5.5 -3 -0.3333333
v -6 -3 -0.3333333
v -6 -2.5 -0.3333333
v -5.5 -2.5 -0.3333333
v -6 -3 -0.3333333
v -6.5 -3 -0.3333333
v -6.5 -2.5 -0.3333333
v -6 -2.5 -0.3333333
v -6.5 -3 -0.3333333
v -7 -3 -0.3333333
v -7 -2.5 -0.3333333
v -6.5 -2.5 -0.3333333
v 0 -3.5 -0.3888889
v -0.5 -3.5 -0.3888889
v -0.5 -3 -0.3888889
v 0 -3 -0.3888889
v -0.5 -3.5 -0.3888889
v -1 -3.5 -0.3888889
v -1 -3 -0.3888889
v -0.5 -3 -0.3888889
v -1 -3.5 -0.3888889
v -1.5 -3.5 -0.3888889
v -1.5 -3 -0.3888889
v -1 -3 -0.3888889
v -1.5 -3.5 -0.3888889
v -2 -3.5 -0.3888889
v -2 -3 -0.3888889
v -1.5 -3 -0.3888889
v -2 -3.5 -0.3888889
v -2.5 -3.5 -0.3888889
v -2.5 -3 -0.3888889
v -2 -3 -0.3888889
v -2.5 -3.5 -0.3888889
v -3 -3.5 -0.3888889
v -3 -3 -0.3888889
v -2.5 -3 -0.3888889
v -3 -3.5 -0.3888889
v -3.5 -3.5 -0.3888889
v -3.5 -3 -0.3888889
v -3 -3 -0.3888889
v -3.5 -3.5 -0.3888889
v -4 -3.5 -0.3888889
v -4 -3 -0.3888889
v -3.5 -3 -0.3888889
v -4 -3.5 -0.3888889
v -4.5 -3.5 -0.3888889
v -4.5 -3 -0.3888889
v -4 -3 -0.3888889
v -4.5 -3.5 -0.3888889
v -5 -3.5 -0.3888889
v -5 -3 -0.3888889
v -4.5 -3 -0.3888889
v -5 -3.5 -0.3888889
v -5.5 -3.5 -0.3888889
v -5.5 -3 -0.3888889
v -5 -3 -0.3888889
v -5.5 -3.5 -0.3888889
v -6 -3.5 -0.3888889
v -6 -3 -0.3888889
v -5.5 -3 -0.3888889
v -6 -3.5 -0.3888889
v -6.5 -3.5 -0.3888889
v -6.5 -3 -0.3888889
v -6 -3 -0.3888889
v -6.5 -3.5 -0.3888889
v -7 -3.5 -0.3888889
v -7 -3 -0.3888889
v -6.5 -3 -0.3888889
v 0 -4 -0.4444444
v -0.5 -4 -0.4444444
v -0.5 -3.5 -0.4444444
v 0 -3.5 -0.4444444
v -0.5 -4 -0.4444444
v -1 -4 -0.4444444
v -1 -3.5 -0.4444444
v -0.5 -3.5 -0.4444444
v -1 -4 -0.4444444
v -1.5 -4 -0.4444444
v -1.5 -3.5 -0.4444444
v -1 -3.5 -0.4444444
v -1.5 -4 -0.4444444
v -2 -4 -0.4444444
v -2 -3.5 -0.4444444
v -1.5 -3.5 -0.4444444
v -2 -4 -0.4444444
v -2.5 -4 -0.4444444
v -2.5 -3.5 -0.4444444
v -2 -3.5 -0.4444444
v -2.5 -4 -0.4444444
v -3 -4 -0.4444444
v -3 -3.5 -0.4444444
v -2.5 -3.5 -0.4444444
v -3 -4 -0.4444444
v -3.5 -4 -0.4444444
v -3.5 -3.5 -0.4444444
v -3 -3.5 -0.4444444
v -3.5 -4 -0.4444444
v -4 -4 -0.4444444
v -4 -3.5 -0.4444444
v -3.5 -3.5 -0.4444444
v -4 -4 -0.4444444
v -4.5 -4 -0.4444444
v -4.5 -3.5 -0.4444444
v -4 -3.5 -0.4444444
v -4.5 -4 -0.4444444
v -5 -4 -0.4444444
v -5 -3.5 -0.4444444
v -4.5 -3.5 -0.4444444
v -5 -4 -0.4444444
v -5.5 -4 -0.4444444
v -5.5 -3.5 -0.4444444
v -5 -3.5 -0.4444444
v -5.5 -4 -0.4444444
v -6 -4 -0.4444444
v -6 -3.5 -0.4444444
v -5.5 -3.5 -0.4444444
v -6 -4 -0.4444444
v -6.5 -4 -0.4444444
v -6.5 -3.5 -0.4444444
v -6 -3.5 -0.4444444
v -6.5 -4 -0.4444444
v -7 -4 -0.4444444
v -7 -3.5 -0.4444444
v -6.5 -3.5 -0.4444444
v 0 -4.5 -0.5
v -0.5 -4.5 -0.5
v -0.5 -4 -0.5
v 0 -4 -0.5
v -0.5 -4.5 -0.5
v -1 -4.5 -0.5
v -1 -4 -0.5
v -0.5 -4 -0.5
v -1 -4.5 -0.5
v -1.5 -4.5 -0.5
v -1.5 -4 -0.5
v -1 -4 -0.5
v -1.5 -4.5 -0.5
v -2 -4.5 -0.5
v -2 -4 -0.5
v -1.5 -4 -0.5
v -2 -4.5 -0.5
v -2.5 -4.5 -0.5
v -2.5 -4 -0.5
v -2 -4 -0.5
v -2.5 -4.5 -0.5
v -3 -4.5 -0.5
v -3 -4 -0.5
v -2.5 -4 -0.5
v -3 -4.5 -0.5
v -3.5 -4.5 -0.5
v -3.5 -4 -0.5
v -3 -4 -0.5
v -3.5 -4.5 -0.5
v -4 -4.5 -0.5
v -4 -4 -0.5
v -3.5 -4 -0.5
v -4 -4.5 -0.5
v -4.5 -4.5 -0.5
v -4.5 -4 -0.5
v -4 -4 -0.5
v -4.5 -4.5 -0.5
v -5 -4.5 -0.5
v -5 -4 -0.5
v -4.5 -4 -0.5
v -5 -4.5 -0.5
v -5.5 -4.5 -0.5
v -5.5 -4 -0.5
v -5 -4 -0.5
v -5.5 -4.5 -0.5
v -6 -4.5 -0.5
v -6 -4 -0.5
v -5.5 -4 -0.5
v -6 -4.5 -0.5
v -6.5 -4.5 -0.5
v -6.5 -4 -0.5
v -6 -4 -0.5
v -6.5 -4.5 -0.5
v -7 -4.5 -0.5
v -7 -4 -0.5
v -6.5 -4 -0.5
v 0 -7.5 -0.8333333
v -0.5 -7.5 -0.8333333
v -0.5 -7 -0.8333333
v 0 -7 -0.8333333
v -0.5 -7.5 -0.8333333
v -1 -7.5 -0.8333333
v -1 -7 -0.8333333
v -0.5 -7 -0.8333333
v -1 -7.5 -0.8333333
v -1.5 -7.5 -0.8333333
v -1.5 -7 -0.8333333
v -1 -7 -0.8333333
v -1.5 -7.5 -0.8333333
v -2 -7.5 -0.8333333
v -2 -7 -0.8333333
v -1.5 -7 -0.8333333
v -2 -7.5 -0.8333333
v -2.5 -7.5 -0.8333333
v -2.5 -7 -0.8333333
v -2 -7 -0.8333333
v -2.5 -7.5 -0.8333333
v -3 -7.5 -0.8333333
v -3 -7 -0.8333333
v -2.5 -7 -0.8333333
v -3 -7.5 -0.8333333
v -3.5 -7.5 -0.8333333
v -3.5 -7 -0.8333333
v -3 -7 -0.8333333
v -3.5 -7.5 -0.8333333
v -4 -7.5 -0.8333333
v -4 -7 -0.8333333
v -3.5 -7 -0.8333333
v -4 -7.5 -0.8333333
v -4.5 -7.5 -0.8333333
v -4.5 -7 -0.8333333
v -4 -7 -0.8333333
v -4.5 -7.5 -0.8333333
v -5 -7.5 -0.8333333
v -5 -7 -0.8333333
v -4.5 -7 -0.8333333
v -5 -7.5 -0.8333333
v -5.5 -7.5 -0.8333333
v -5.5 -7 -0.8333333
v -5 -7 -0.8333333
v -5.5 -7.5 -0.8333333
v -6 -7.5 -0.8333333
v -6 -7 -0.8333333
v -5.5 -7 -0.8333333
v -6 -7.5 -0.8333333
v -6.5 -7.5 -0.8333333
v -6.5 -7 -0.8333333
v -6 -7 -0.8333333
v -6.5 -7.5 -0.8333333
v -7 -7.5 -0.8333333
v -7 -7 -0.8333333
v -6.5 -7 -0.8333333
v 0 -8 -0.8888889
v -0.5 -8 -0.8888889
v -0.5 -7.5 -0.8888889
v 0 -7.5 -0.8888889
v -0.5 -8 -0.8888889
v -1 -8 -0.8888889
v -1 -7.5 -0.8888889
v -0.5 -7.5 -0.8888889
v -1 -8 -0.8888889
v -1.5 -8 -0.8888889
v -1.5 -7.5 -0.8888889
v -1 -7.5 -0.8888889
v -1.5 -8 -0.8888889
v -2 -8 -0.8888889
v -2 -7.5 -0.8888889
v -1.5 -7.5 -0.8888889
v -2 -8 -0.8888889
v -2.5 -8 -0.8888889
v -2.5 -7.5 -0.8888889
v -2 -7.5 -0.8888889
v -2.5 -8 -0.8888889
v -3 -8 -0.8888889
v -3 -7.5 -0.8888889
v -2.5 -7.5 -0.8888889
v -3 -8 -0.8888889
v -3.5 -8 -0.8888889
v -3.5 -7.5 -0.8888889
v -3 -7.5 -0.8888889
v -3.5 -8 -0.8888889
v -4 -8 -0.8888889
v -4 -7.5 -0.8888889
v -3.5 -7.5 -0.8888889
v -4 -8 -0.8888889
v -4.5 -8 -0.8888889
v -4.5 -7.5 -0.8888889
v -4 -7.5 -0.8888889
v -4.5 -8 -0.8888889
v -5 -8 -0.8888889
v -5 -7.5 -0.8888889
v -4.5 -7.5 -0.8888889
v -5 -8 -0.8888889
v -5.5 -8 -0.8888889
v -5.5 -7.5 -0.8888889
v -5 -7.5 -0.8888889
v -5.5 -8 -0.8888889
v -6 -8 -0.8888889
v -6 -7.5 -0.8888889
v -5.5 -7.5 -0.8888889
v -6 -8 -0.8888889
v -6.5 -8 -0.8888889
v -6.5 -7.5 -0.8888889
v -6 -7.5 -0.8888889
v -6.5 -8 -0.8888889
v -7 -8 -0.8888889
v -7 -7.5 -0.8888889
v -6.5 -7.5 -0.8888889
v 0 -8.5 -0.9444444
v -0.5 -8.5 -0.9444444
v -0.5 -8 -0.9444444
v 0 -8 -0.9444444
v -0.5 -8.5 -0.9444444
v -1 -8.5 -0.9444444
v -1 -8 -0.9444444
v -0.5 -8 -0.9444444
v -1 -8.5 -0.9444444
v -1.5 -8.5 -0.9444444
v -1.5 -8 -0.9444444
v -1 -8 -0.9444444
v -1.5 -8.5 -0.9444444
v -2 -8.5 -0.9444444
v -2 -8 -0.9444444
v -1.5 -8 -0.9444444
v -2 -8.5 -0.9444444
v -2.5 -8.5 -0.9444444
v -2.5 -8 -0.9444444
v -2 -8 -0.9444444
v -2.5 -8.5 -0.9444444
v -3 -8.5 -0.9444444
v -3 -8 -0.9444444
v -2.5 -8 -0.9444444
v -3 -8.5 -0.9444444
v -3.5 -8.5 -0.9444444
v -3.5 -8 -0.9444444
v -3 -8 -0.9444444
v -3.5 -8.5 -0.9444444
v -4 -8.5 -0.9444444
v -4 -8 -0.9444444
v -3.5 -8 -0.9444444
v -4 -8.5 -0.9444444
v -4.5 -8.5 -0.9444444
v -4.5 -8 -0.9444444
v -4 -8 -0.9444444
v -4.5 -8.5 -0.9444444
v -5 -8.5 -0.9444444
v -5 -8 -0.9444444
v -4.5 -8 -0.9444444
v -5 -8.5 -0.9444444
v -5.5 -8.5 -0.9444444
v -5.5 -8 -0.9444444
v -5 -8 -0.9444444
v -5.5 -8.5 -0.9444444
v -6 -8.5 -0.9444444
v -6 -8 -0.9444444
v -5.5 -8 -0.9444444
v -6 -8.5 -0.9444444
v -6.5 -8.5 -0.9444444
v -6.5 -8 -0.9444444
v -6 -8 -0.9444444
v -6.5 -8.5 -0.9444444
v -7 -8.5 -0.9444444
v -7 -8 -0.9444444
v -6.5 -8 -0.9444444
v 0 -9 -1
v -0.5 -9 -1
v -0.5 -8.5 -1
v 0 -8.5 -1
v -0.5 -9 -1
v -1 -9 -1
v -1 -8.5 -1
v -0.5 -8.5 -1
v -1 -9 -1
v -1.5 -9 -1
v -1.5 -8.5 -1
v -1 -8.5 -1
v -1.5 -9 -1
v -2 -9 -1
v -2 -8.5 -1
v -1.5 -8.5 -1
v -2 -9 -1
v -2.5 -9 -1
v -2.5 -8.5 -1
v -2 -8.5 -1
v -2.5 -9 -1
v -3 -9 -1
v -3 -8.5 -1
v -2.5 -8.5 -1
v -3 -9 -1
v -3.5 -9 -1
v -3.5 -8.5 -1
v -3 -8.5 -1
v -3.5 -9 -1
v -4 -9 -1
v -4 -8.5 -1
v -3.5 -8.5 -1
v -4 -9 -1
v -4.5 -9 -1
v -4.5 -8.5 -1
v -4 -8.5 -1
v -4.5 -9 -1
v -5 -9 -1
v -5 -8.5 -1
v -4.5 -8.5 -1
v -5 -9 -1
v -5.5 -9 -1
v -5.5 -8.5 -1
v -5 -8.5 -1
v -5.5 -9 -1
v -6 -9 -1
v -6 -8.5 -1
v -5.5 -8.5 -1
v -6 -9 -1
v -6.5 -9 -1
v -6.5 -8.5 -1
v -6 -8.5 -1
v -6.5 -9 -1
v -7 -9 -1
v -7 -8.5 -1
v -6.5 -8.5 -1

# Texture cooridinates (Count = 112)
vt 0.08707859 0.8751221
vt 0.1303127 0.8751221
vt 0.1303127 0.9165446
vt 0.08707859 0.9165446
vt 0.1305569 0.8751221
vt 0.173791 0.8751221
vt 0.173791 0.9165446
vt 0.1305569 0.9165446
vt 0.1740351 0.8751221
vt 0.2172692 0.8751221
vt 0.2172692 0.9165446
vt 0.1740351 0.9165446
vt 0.2609916 0.8751221
vt 0.3042257 0.8751221
vt 0.3042257 0.9165446
vt 0.2609916 0.9165446
vt 0.08707859 0.7917888
vt 0.1303127 0.7917888
vt 0.1303127 0.8332112
vt 0.08707859 0.8332112
vt 0.2609916 0.7917888
vt 0.3042257 0.7917888
vt 0.3042257 0.8332112
vt 0.2609916 0.8332112
vt 0.08707859 0.7501221
vt 0.1303127 0.7501221
vt 0.1303127 0.7915446
vt 0.08707859 0.7915446
vt 0.2609916 0.7501221
vt 0.3042257 0.7501221
vt 0.3042257 0.7915446
vt 0.2609916 0.7915446
vt 0.08707859 0.7084554
vt 0.1303127 0.7084554
vt 0.1303127 0.7498779
vt 0.08707859 0.7498779
vt 0.1305569 0.7084554
vt 0.173791 0.7084554
vt 0.173791 0.7498779
vt 0.1305569 0.7498779
vt 0.1740351 0.7084554
vt 0.2172692 0.7084554
vt 0.2172692 0.7498779
vt 0.1740351 0.7498779
vt 0.2609916 0.7084554
vt 0.3042257 0.7084554
vt 0.3042257 0.7498779
vt 0.2609916 0.7498779
vt 0.08707859 0.6667887
vt 0.1303127 0.6667887
vt 0.1303127 0.7082113
vt 0.08707859 0.7082113
vt 0.1305569 0.6667887
vt 0.173791 0.6667887
vt 0.173791 0.7082113
vt 0.1305569 0.7082113
vt 0.1740351 0.6667887
vt 0.2172692 0.6667887
vt 0.2172692 0.7082113
vt 0.1740351 0.7082113
vt 0.2609916 0.6667887
vt 0.3042257 0.6667887
vt 0.3042257 0.7082113
vt 0.2609916 0.7082113
vt 0.08707859 0.2917888
vt 0.1303127 0.2917888
vt 0.1303127 0.3332112
vt 0.08707859 0.3332112
vt 0.1305569 0.2917888
vt 0.173791 0.2917888
vt 0.173791 0.3332112
vt 0.1305569 0.3332112
vt 0.1740351 0.2917888
vt 0.2172692 0.2917888
vt 0.2172692 0.3332112
vt 0.1740351 0.3332112
vt 0.08707859 0.2501221
vt 0.1303127 0.2501221
vt 0.1303127 0.2915446
vt 0.08707859 0.2915446
vt 0.1305569 0.2501221
vt 0.173791 0.2501221
vt 0.173791 0.2915446
vt 0.1305569 0.2915446
vt 0.1740351 0.2501221
vt 0.2172692 0.2501221
vt 0.2172692 0.2915446
vt 0.1740351 0.2915446
vt 0.08707859 0.2084554
vt 0.1303127 0.2084554
vt 0.1303127 0.2498779
vt 0.08707859 0.2498779
vt 0.1305569 0.2084554
vt 0.173791 0.2084554
vt 0.173791 0.2498779
vt 0.1305569 0.2498779
vt 0.1740351 0.2084554
vt 0.2172692 0.2084554
vt 0.2172692 0.2498779
vt 0.1740351 0.2498779
vt 0.08707859 0.1667888
vt 0.1303127 0.1667888
vt 0.1303127 0.2082112
vt 0.08707859 0.2082112
vt 0.1305569 0.1667888
vt 0.173791 0.1667888
vt 0.173791 0.2082112
vt 0.1305569 0.2082112
vt 0.1740351 0.1667888
vt 0.2172692 0.1667888
vt 0.2172692 0.2082112
vt 0.1740351 0.2082112

# Normal
vn 0 0 -1

# Mesh description
g Level11_mesh_0001

# Faces
f 1/1/1 2/2/1 3/3/1 4/4/1
f 5/5/1 6/6/1 7/7/1 8/8/1
f 9/9/1 10/10/1 11/11/1 12/12/1
f 13/13/1 14/14/1 15/15/1 16/16/1
f 17/17/1 18/18/1 19/19/1 20/20/1
f 21/21/1 22/22/1 23/23/1 24/24/1
f 25/25/1 26/26/1 27/27/1 28/28/1
f 29/29/1 30/30/1 31/31/1 32/32/1
f 33/33/1 34/34/1 35/35/1 36/36/1
f 37/37/1 38/38/1 39/39/1 40/40/1
f 41/41/1 42/42/1 43/43/1 44/44/1
f 45/45/1 46/46/1 47/47/1 48/48/1
f 49/49/1 50/50/1 51/51/1 52/52/1
f 53/53/1 54/54/1 55/55/1 56/56/1
f 57/57/1 58/58/1 59/59/1 60/60/1
f 61/61/1 62/62/1 63/63/1 64/64/1
f 65/65/1 66/66/1 67/67/1 68/68/1
f 69/69/1 70/70/1 71/71/1 72/72/1
f 73/69/1 74/70/1 75/71/1 76/72/1
f 77/69/1 78/70/1 79/71/1 80/72/1
f 81/69/1 82/70/1 83/71/1 84/72/1
f 85/69/1 86/70/1 87/71/1 88/72/1
f 89/69/1 90/70/1 91/71/1 92/72/1
f 93/69/1 94/70/1 95/71/1 96/72/1
f 97/69/1 98/70/1 99/71/1 100/72/1
f 101/69/1 102/70/1 103/71/1 104/72/1
f 105/69/1 106/70/1 107/71/1 108/72/1
f 109/69/1 110/70/1 111/71/1 112/72/1
f 113/69/1 114/70/1 115/71/1 116/72/1
f 117/73/1 118/74/1 119/75/1 120/76/1
f 121/77/1 122/78/1 123/79/1 124/80/1
f 125/81/1 126/82/1 127/83/1 128/84/1
f 129/81/1 130/82/1 131/83/1 132/84/1
f 133/81/1 134/82/1 135/83/1 136/84/1
f 137/81/1 138/82/1 139/83/1 140/84/1
f 141/81/1 142/82/1 143/83/1 144/84/1
f 145/81/1 146/82/1 147/83/1 148/84/1
f 149/81/1 150/82/1 151/83/1 152/84/1
f 153/81/1 154/82/1 155/83/1 156/84/1
f 157/81/1 158/82/1 159/83/1 160/84/1
f 161/81/1 162/82/1 163/83/1 164/84/1
f 165/81/1 166/82/1 167/83/1 168/84/1
f 169/81/1 170/82/1 171/83/1 172/84/1
f 173/85/1 174/86/1 175/87/1 176/88/1
f 177/89/1 178/90/1 179/91/1 180/92/1
f 181/93/1 182/94/1 183/95/1 184/96/1
f 185/93/1 186/94/1 187/95/1 188/96/1
f 189/93/1 190/94/1 191/95/1 192/96/1
f 193/93/1 194/94/1 195/95/1 196/96/1
f 197/93/1 198/94/1 199/95/1 200/96/1
f 201/93/1 202/94/1 203/95/1 204/96/1
f 205/93/1 206/94/1 207/95/1 208/96/1
f 209/93/1 210/94/1 211/95/1 212/96/1
f 213/93/1 214/94/1 215/95/1 216/96/1
f 217/93/1 218/94/1 219/95/1 220/96/1
f 221/93/1 222/94/1 223/95/1 224/96/1
f 225/93/1 226/94/1 227/95/1 228/96/1
f 229/97/1 230/98/1 231/99/1 232/100/1
f 233/101/1 234/102/1 235/103/1 236/104/1
f 237/105/1 238/106/1 239/107/1 240/108/1
f 241/105/1 242/106/1 243/107/1 244/108/1
f 245/105/1 246/106/1 247/107/1 248/108/1
f 249/105/1 250/106/1 251/107/1 252/108/1
f 253/105/1 254/106/1 255/107/1 256/108/1
f 257/105/1 258/106/1 259/107/1 260/108/1
f 261/105/1 262/106/1 263/107/1 264/108/1
f 265/105/1 266/106/1 267/107/1 268/108/1
f 269/105/1 270/106/1 271/107/1 272/108/1
f 273/105/1 274/106/1 275/107/1 276/108/1
f 277/105/1 278/106/1 279/107/1 280/108/1
f 281/105/1 282/106/1 283/107/1 284/108/1
f 285/109/1 286/110/1 287/111/1 288/112/1
f 289/65/1 290/66/1 291/67/1 292/68/1
f 293/69/1 294/70/1 295/71/1 296/72/1
f 297/69/1 298/70/1 299/71/1 300/72/1
f 301/69/1 302/70/1 303/71/1 304/72/1
f 305/69/1 306/70/1 307/71/1 308/72/1
f 309/69/1 310/70/1 311/71/1 312/72/1
f 313/69/1 314/70/1 315/71/1 316/72/1
f 317/69/1 318/70/1 319/71/1 320/72/1
f 321/69/1 322/70/1 323/71/1 324/72/1
f 325/69/1 326/70/1 327/71/1 328/72/1
f 329/69/1 330/70/1 331/71/1 332/72/1
f 333/69/1 334/70/1 335/71/1 336/72/1
f 337/69/1 338/70/1 339/71/1 340/72/1
f 341/73/1 342/74/1 343/75/1 344/76/1
f 345/77/1 346/78/1 347/79/1 348/80/1
f 349/81/1 350/82/1 351/83/1 352/84/1
f 353/81/1 354/82/1 355/83/1 356/84/1
f 357/81/1 358/82/1 359/83/1 360/84/1
f 361/81/1 362/82/1 363/83/1 364/84/1
f 365/81/1 366/82/1 367/83/1 368/84/1
f 369/81/1 370/82/1 371/83/1 372/84/1
f 373/81/1 374/82/1 375/83/1 376/84/1
f 377/81/1 378/82/1 379/83/1 380/84/1
f 381/81/1 382/82/1 383/83/1 384/84/1
f 385/81/1 386/82/1 387/83/1 388/84/1
f 389/81/1 390/82/1 391/83/1 392/84/1
f 393/81/1 394/82/1 395/83/1 396/84/1
f 397/85/1 398/86/1 399/87/1 400/88/1
f 401/89/1 402/90/1 403/91/1 404/92/1
f 405/93/1 406/94/1 407/95/1 408/96/1
f 409/93/1 410/94/1 411/95/1 412/96/1
f 413/93/1 414/94/1 415/95/1 416/96/1
f 417/93/1 418/94/1 419/95/1 420/96/1
f 421/93/1 422/94/1 423/95/1 424/96/1
f 425/93/1 426/94/1 427/95/1 428/96/1
f 429/93/1 430/94/1 431/95/1 432/96/1
f 433/93/1 434/94/1 435/95/1 436/96/1
f 437/93/1 438/94/1 439/95/1 440/96/1
f 441/93/1 442/94/1 443/95/1 444/96/1
f 445/93/1 446/94/1 447/95/1 448/96/1
f 449/93/1 450/94/1 451/95/1 452/96/1
f 453/97/1 454/98/1 455/99/1 456/100/1
f 457/101/1 458/102/1 459/103/1 460/104/1
f 461/105/1 462/106/1 463/107/1 464/108/1
f 465/105/1 466/106/1 467/107/1 468/108/1
f 469/105/1 470/106/1 471/107/1 472/108/1
f 473/105/1 474/106/1 475/107/1 476/108/1
f 477/105/1 478/106/1 479/107/1 480/108/1
f 481/105/1 482/106/1 483/107/1 484/108/1
f 485/105/1 486/106/1 487/107/1 488/108/1
f 489/105/1 490/106/1 491/107/1 492/108/1
f 493/105/1 494/106/1 495/107/1 496/108/1
f 497/105/1 498/106/1 499/107/1 500/108/1
f 501/105/1 502/106/1 503/107/1 504/108/1
f 505/105/1 506/106/1 507/107/1 508/108/1
f 509/109/1 510/110/1 511/111/1 512/112/1

