# Tiled2Unity generated file. Do not modify by hand.
# Wavefront file for 'Level5_mesh_0001.obj'

# Vertices (Count = 640)
v -2.5 -0.5 -0.1
v -3 -0.5 -0.1
v -3 0 -0.1
v -2.5 0 -0.1
v -3 -0.5 -0.1
v -3.5 -0.5 -0.1
v -3.5 0 -0.1
v -3 0 -0.1
v -4 -0.5 -0.1
v -4.5 -0.5 -0.1
v -4.5 0 -0.1
v -4 0 -0.1
v -4.5 -0.5 -0.1
v -5 -0.5 -0.1
v -5 0 -0.1
v -4.5 0 -0.1
v -5.5 -0.5 -0.1
v -6 -0.5 -0.1
v -6 0 -0.1
v -5.5 0 -0.1
v -6 -0.5 -0.1
v -6.5 -0.5 -0.1
v -6.5 0 -0.1
v -6 0 -0.1
v -7 -0.5 -0.1
v -7.5 -0.5 -0.1
v -7.5 0 -0.1
v -7 0 -0.1
v -7.5 -0.5 -0.1
v -8 -0.5 -0.1
v -8 0 -0.1
v -7.5 0 -0.1
v -9 -0.5 -0.1
v -9.5 -0.5 -0.1
v -9.5 0 -0.1
v -9 0 -0.1
v -9.5 -0.5 -0.1
v -10 -0.5 -0.1
v -10 0 -0.1
v -9.5 0 -0.1
v -10.5 -0.5 -0.1
v -11 -0.5 -0.1
v -11 0 -0.1
v -10.5 0 -0.1
v -11 -0.5 -0.1
v -11.5 -0.5 -0.1
v -11.5 0 -0.1
v -11 0 -0.1
v -12 -0.5 -0.1
v -12.5 -0.5 -0.1
v -12.5 0 -0.1
v -12 0 -0.1
v -12.5 -0.5 -0.1
v -13 -0.5 -0.1
v -13 0 -0.1
v -12.5 0 -0.1
v -13.5 -0.5 -0.1
v -14 -0.5 -0.1
v -14 0 -0.1
v -13.5 0 -0.1
v -14 -0.5 -0.1
v -14.5 -0.5 -0.1
v -14.5 0 -0.1
v -14 0 -0.1
v -2.5 -1 -0.2
v -3 -1 -0.2
v -3 -0.5 -0.2
v -2.5 -0.5 -0.2
v -3 -1 -0.2
v -3.5 -1 -0.2
v -3.5 -0.5 -0.2
v -3 -0.5 -0.2
v -4 -1 -0.2
v -4.5 -1 -0.2
v -4.5 -0.5 -0.2
v -4 -0.5 -0.2
v -4.5 -1 -0.2
v -5 -1 -0.2
v -5 -0.5 -0.2
v -4.5 -0.5 -0.2
v -5.5 -1 -0.2
v -6 -1 -0.2
v -6 -0.5 -0.2
v -5.5 -0.5 -0.2
v -6 -1 -0.2
v -6.5 -1 -0.2
v -6.5 -0.5 -0.2
v -6 -0.5 -0.2
v -7 -1 -0.2
v -7.5 -1 -0.2
v -7.5 -0.5 -0.2
v -7 -0.5 -0.2
v -7.5 -1 -0.2
v -8 -1 -0.2
v -8 -0.5 -0.2
v -7.5 -0.5 -0.2
v -9 -1 -0.2
v -9.5 -1 -0.2
v -9.5 -0.5 -0.2
v -9 -0.5 -0.2
v -9.5 -1 -0.2
v -10 -1 -0.2
v -10 -0.5 -0.2
v -9.5 -0.5 -0.2
v -10.5 -1 -0.2
v -11 -1 -0.2
v -11 -0.5 -0.2
v -10.5 -0.5 -0.2
v -11 -1 -0.2
v -11.5 -1 -0.2
v -11.5 -0.5 -0.2
v -11 -0.5 -0.2
v -12 -1 -0.2
v -12.5 -1 -0.2
v -12.5 -0.5 -0.2
v -12 -0.5 -0.2
v -12.5 -1 -0.2
v -13 -1 -0.2
v -13 -0.5 -0.2
v -12.5 -0.5 -0.2
v -13.5 -1 -0.2
v -14 -1 -0.2
v -14 -0.5 -0.2
v -13.5 -0.5 -0.2
v -14 -1 -0.2
v -14.5 -1 -0.2
v -14.5 -0.5 -0.2
v -14 -0.5 -0.2
v -2.5 -1.5 -0.3
v -3 -1.5 -0.3
v -3 -1 -0.3
v -2.5 -1 -0.3
v -3 -1.5 -0.3
v -3.5 -1.5 -0.3
v -3.5 -1 -0.3
v -3 -1 -0.3
v -4 -1.5 -0.3
v -4.5 -1.5 -0.3
v -4.5 -1 -0.3
v -4 -1 -0.3
v -4.5 -1.5 -0.3
v -5 -1.5 -0.3
v -5 -1 -0.3
v -4.5 -1 -0.3
v -5.5 -1.5 -0.3
v -6 -1.5 -0.3
v -6 -1 -0.3
v -5.5 -1 -0.3
v -6 -1.5 -0.3
v -6.5 -1.5 -0.3
v -6.5 -1 -0.3
v -6 -1 -0.3
v -7 -1.5 -0.3
v -7.5 -1.5 -0.3
v -7.5 -1 -0.3
v -7 -1 -0.3
v -7.5 -1.5 -0.3
v -8 -1.5 -0.3
v -8 -1 -0.3
v -7.5 -1 -0.3
v -9 -1.5 -0.3
v -9.5 -1.5 -0.3
v -9.5 -1 -0.3
v -9 -1 -0.3
v -9.5 -1.5 -0.3
v -10 -1.5 -0.3
v -10 -1 -0.3
v -9.5 -1 -0.3
v -10.5 -1.5 -0.3
v -11 -1.5 -0.3
v -11 -1 -0.3
v -10.5 -1 -0.3
v -11 -1.5 -0.3
v -11.5 -1.5 -0.3
v -11.5 -1 -0.3
v -11 -1 -0.3
v -12 -1.5 -0.3
v -12.5 -1.5 -0.3
v -12.5 -1 -0.3
v -12 -1 -0.3
v -12.5 -1.5 -0.3
v -13 -1.5 -0.3
v -13 -1 -0.3
v -12.5 -1 -0.3
v -13.5 -1.5 -0.3
v -14 -1.5 -0.3
v -14 -1 -0.3
v -13.5 -1 -0.3
v -14 -1.5 -0.3
v -14.5 -1.5 -0.3
v -14.5 -1 -0.3
v -14 -1 -0.3
v -16 -1.5 -0.3
v -16.5 -1.5 -0.3
v -16.5 -1 -0.3
v -16 -1 -0.3
v -16.5 -1.5 -0.3
v -17 -1.5 -0.3
v -17 -1 -0.3
v -16.5 -1 -0.3
v -17 -1.5 -0.3
v -17.5 -1.5 -0.3
v -17.5 -1 -0.3
v -17 -1 -0.3
v -17.5 -1.5 -0.3
v -18 -1.5 -0.3
v -18 -1 -0.3
v -17.5 -1 -0.3
v 0 -2 -0.4
v -0.5 -2 -0.4
v -0.5 -1.5 -0.4
v 0 -1.5 -0.4
v -0.5 -2 -0.4
v -1 -2 -0.4
v -1 -1.5 -0.4
v -0.5 -1.5 -0.4
v -2.5 -2 -0.4
v -3 -2 -0.4
v -3 -1.5 -0.4
v -2.5 -1.5 -0.4
v -3 -2 -0.4
v -3.5 -2 -0.4
v -3.5 -1.5 -0.4
v -3 -1.5 -0.4
v -4 -2 -0.4
v -4.5 -2 -0.4
v -4.5 -1.5 -0.4
v -4 -1.5 -0.4
v -4.5 -2 -0.4
v -5 -2 -0.4
v -5 -1.5 -0.4
v -4.5 -1.5 -0.4
v -5.5 -2 -0.4
v -6 -2 -0.4
v -6 -1.5 -0.4
v -5.5 -1.5 -0.4
v -6 -2 -0.4
v -6.5 -2 -0.4
v -6.5 -1.5 -0.4
v -6 -1.5 -0.4
v -7 -2 -0.4
v -7.5 -2 -0.4
v -7.5 -1.5 -0.4
v -7 -1.5 -0.4
v -7.5 -2 -0.4
v -8 -2 -0.4
v -8 -1.5 -0.4
v -7.5 -1.5 -0.4
v -9 -2 -0.4
v -9.5 -2 -0.4
v -9.5 -1.5 -0.4
v -9 -1.5 -0.4
v -9.5 -2 -0.4
v -10 -2 -0.4
v -10 -1.5 -0.4
v -9.5 -1.5 -0.4
v -10.5 -2 -0.4
v -11 -2 -0.4
v -11 -1.5 -0.4
v -10.5 -1.5 -0.4
v -11 -2 -0.4
v -11.5 -2 -0.4
v -11.5 -1.5 -0.4
v -11 -1.5 -0.4
v -12 -2 -0.4
v -12.5 -2 -0.4
v -12.5 -1.5 -0.4
v -12 -1.5 -0.4
v -12.5 -2 -0.4
v -13 -2 -0.4
v -13 -1.5 -0.4
v -12.5 -1.5 -0.4
v -13.5 -2 -0.4
v -14 -2 -0.4
v -14 -1.5 -0.4
v -13.5 -1.5 -0.4
v -14 -2 -0.4
v -14.5 -2 -0.4
v -14.5 -1.5 -0.4
v -14 -1.5 -0.4
v -17 -2 -0.4
v -17.5 -2 -0.4
v -17.5 -1.5 -0.4
v -17 -1.5 -0.4
v -17.5 -2 -0.4
v -18 -2 -0.4
v -18 -1.5 -0.4
v -17.5 -1.5 -0.4
v 0 -2.5 -0.5
v -0.5 -2.5 -0.5
v -0.5 -2 -0.5
v 0 -2 -0.5
v -0.5 -2.5 -0.5
v -1 -2.5 -0.5
v -1 -2 -0.5
v -0.5 -2 -0.5
v -17 -2.5 -0.5
v -17.5 -2.5 -0.5
v -17.5 -2 -0.5
v -17 -2 -0.5
v -17.5 -2.5 -0.5
v -18 -2.5 -0.5
v -18 -2 -0.5
v -17.5 -2 -0.5
v 0 -3 -0.6
v -0.5 -3 -0.6
v -0.5 -2.5 -0.6
v 0 -2.5 -0.6
v -0.5 -3 -0.6
v -1 -3 -0.6
v -1 -2.5 -0.6
v -0.5 -2.5 -0.6
v -16 -3 -0.6
v -16.5 -3 -0.6
v -16.5 -2.5 -0.6
v -16 -2.5 -0.6
v -16.5 -3 -0.6
v -17 -3 -0.6
v -17 -2.5 -0.6
v -16.5 -2.5 -0.6
v -17 -3 -0.6
v -17.5 -3 -0.6
v -17.5 -2.5 -0.6
v -17 -2.5 -0.6
v -17.5 -3 -0.6
v -18 -3 -0.6
v -18 -2.5 -0.6
v -17.5 -2.5 -0.6
v 0 -3.5 -0.7
v -0.5 -3.5 -0.7
v -0.5 -3 -0.7
v 0 -3 -0.7
v -0.5 -3.5 -0.7
v -1 -3.5 -0.7
v -1 -3 -0.7
v -0.5 -3 -0.7
v -2.5 -3.5 -0.7
v -3 -3.5 -0.7
v -3 -3 -0.7
v -2.5 -3 -0.7
v -3 -3.5 -0.7
v -3.5 -3.5 -0.7
v -3.5 -3 -0.7
v -3 -3 -0.7
v -4 -3.5 -0.7
v -4.5 -3.5 -0.7
v -4.5 -3 -0.7
v -4 -3 -0.7
v -4.5 -3.5 -0.7
v -5 -3.5 -0.7
v -5 -3 -0.7
v -4.5 -3 -0.7
v -5.5 -3.5 -0.7
v -6 -3.5 -0.7
v -6 -3 -0.7
v -5.5 -3 -0.7
v -6 -3.5 -0.7
v -6.5 -3.5 -0.7
v -6.5 -3 -0.7
v -6 -3 -0.7
v -7 -3.5 -0.7
v -7.5 -3.5 -0.7
v -7.5 -3 -0.7
v -7 -3 -0.7
v -7.5 -3.5 -0.7
v -8 -3.5 -0.7
v -8 -3 -0.7
v -7.5 -3 -0.7
v -9 -3.5 -0.7
v -9.5 -3.5 -0.7
v -9.5 -3 -0.7
v -9 -3 -0.7
v -9.5 -3.5 -0.7
v -10 -3.5 -0.7
v -10 -3 -0.7
v -9.5 -3 -0.7
v -10.5 -3.5 -0.7
v -11 -3.5 -0.7
v -11 -3 -0.7
v -10.5 -3 -0.7
v -11 -3.5 -0.7
v -11.5 -3.5 -0.7
v -11.5 -3 -0.7
v -11 -3 -0.7
v -12 -3.5 -0.7
v -12.5 -3.5 -0.7
v -12.5 -3 -0.7
v -12 -3 -0.7
v -12.5 -3.5 -0.7
v -13 -3.5 -0.7
v -13 -3 -0.7
v -12.5 -3 -0.7
v -13.5 -3.5 -0.7
v -14 -3.5 -0.7
v -14 -3 -0.7
v -13.5 -3 -0.7
v -14 -3.5 -0.7
v -14.5 -3.5 -0.7
v -14.5 -3 -0.7
v -14 -3 -0.7
v -16 -3.5 -0.7
v -16.5 -3.5 -0.7
v -16.5 -3 -0.7
v -16 -3 -0.7
v -16.5 -3.5 -0.7
v -17 -3.5 -0.7
v -17 -3 -0.7
v -16.5 -3 -0.7
v -17 -3.5 -0.7
v -17.5 -3.5 -0.7
v -17.5 -3 -0.7
v -17 -3 -0.7
v -17.5 -3.5 -0.7
v -18 -3.5 -0.7
v -18 -3 -0.7
v -17.5 -3 -0.7
v -2.5 -4 -0.8
v -3 -4 -0.8
v -3 -3.5 -0.8
v -2.5 -3.5 -0.8
v -3 -4 -0.8
v -3.5 -4 -0.8
v -3.5 -3.5 -0.8
v -3 -3.5 -0.8
v -4 -4 -0.8
v -4.5 -4 -0.8
v -4.5 -3.5 -0.8
v -4 -3.5 -0.8
v -4.5 -4 -0.8
v -5 -4 -0.8
v -5 -3.5 -0.8
v -4.5 -3.5 -0.8
v -5.5 -4 -0.8
v -6 -4 -0.8
v -6 -3.5 -0.8
v -5.5 -3.5 -0.8
v -6 -4 -0.8
v -6.5 -4 -0.8
v -6.5 -3.5 -0.8
v -6 -3.5 -0.8
v -7 -4 -0.8
v -7.5 -4 -0.8
v -7.5 -3.5 -0.8
v -7 -3.5 -0.8
v -7.5 -4 -0.8
v -8 -4 -0.8
v -8 -3.5 -0.8
v -7.5 -3.5 -0.8
v -9 -4 -0.8
v -9.5 -4 -0.8
v -9.5 -3.5 -0.8
v -9 -3.5 -0.8
v -9.5 -4 -0.8
v -10 -4 -0.8
v -10 -3.5 -0.8
v -9.5 -3.5 -0.8
v -10.5 -4 -0.8
v -11 -4 -0.8
v -11 -3.5 -0.8
v -10.5 -3.5 -0.8
v -11 -4 -0.8
v -11.5 -4 -0.8
v -11.5 -3.5 -0.8
v -11 -3.5 -0.8
v -12 -4 -0.8
v -12.5 -4 -0.8
v -12.5 -3.5 -0.8
v -12 -3.5 -0.8
v -12.5 -4 -0.8
v -13 -4 -0.8
v -13 -3.5 -0.8
v -12.5 -3.5 -0.8
v -13.5 -4 -0.8
v -14 -4 -0.8
v -14 -3.5 -0.8
v -13.5 -3.5 -0.8
v -14 -4 -0.8
v -14.5 -4 -0.8
v -14.5 -3.5 -0.8
v -14 -3.5 -0.8
v -16 -4 -0.8
v -16.5 -4 -0.8
v -16.5 -3.5 -0.8
v -16 -3.5 -0.8
v -16.5 -4 -0.8
v -17 -4 -0.8
v -17 -3.5 -0.8
v -16.5 -3.5 -0.8
v -17 -4 -0.8
v -17.5 -4 -0.8
v -17.5 -3.5 -0.8
v -17 -3.5 -0.8
v -17.5 -4 -0.8
v -18 -4 -0.8
v -18 -3.5 -0.8
v -17.5 -3.5 -0.8
v -2.5 -4.5 -0.9
v -3 -4.5 -0.9
v -3 -4 -0.9
v -2.5 -4 -0.9
v -3 -4.5 -0.9
v -3.5 -4.5 -0.9
v -3.5 -4 -0.9
v -3 -4 -0.9
v -4 -4.5 -0.9
v -4.5 -4.5 -0.9
v -4.5 -4 -0.9
v -4 -4 -0.9
v -4.5 -4.5 -0.9
v -5 -4.5 -0.9
v -5 -4 -0.9
v -4.5 -4 -0.9
v -5.5 -4.5 -0.9
v -6 -4.5 -0.9
v -6 -4 -0.9
v -5.5 -4 -0.9
v -6 -4.5 -0.9
v -6.5 -4.5 -0.9
v -6.5 -4 -0.9
v -6 -4 -0.9
v -7 -4.5 -0.9
v -7.5 -4.5 -0.9
v -7.5 -4 -0.9
v -7 -4 -0.9
v -7.5 -4.5 -0.9
v -8 -4.5 -0.9
v -8 -4 -0.9
v -7.5 -4 -0.9
v -9 -4.5 -0.9
v -9.5 -4.5 -0.9
v -9.5 -4 -0.9
v -9 -4 -0.9
v -9.5 -4.5 -0.9
v -10 -4.5 -0.9
v -10 -4 -0.9
v -9.5 -4 -0.9
v -10.5 -4.5 -0.9
v -11 -4.5 -0.9
v -11 -4 -0.9
v -10.5 -4 -0.9
v -11 -4.5 -0.9
v -11.5 -4.5 -0.9
v -11.5 -4 -0.9
v -11 -4 -0.9
v -12 -4.5 -0.9
v -12.5 -4.5 -0.9
v -12.5 -4 -0.9
v -12 -4 -0.9
v -12.5 -4.5 -0.9
v -13 -4.5 -0.9
v -13 -4 -0.9
v -12.5 -4 -0.9
v -13.5 -4.5 -0.9
v -14 -4.5 -0.9
v -14 -4 -0.9
v -13.5 -4 -0.9
v -14 -4.5 -0.9
v -14.5 -4.5 -0.9
v -14.5 -4 -0.9
v -14 -4 -0.9
v -16 -4.5 -0.9
v -16.5 -4.5 -0.9
v -16.5 -4 -0.9
v -16 -4 -0.9
v -16.5 -4.5 -0.9
v -17 -4.5 -0.9
v -17 -4 -0.9
v -16.5 -4 -0.9
v -17 -4.5 -0.9
v -17.5 -4.5 -0.9
v -17.5 -4 -0.9
v -17 -4 -0.9
v -17.5 -4.5 -0.9
v -18 -4.5 -0.9
v -18 -4 -0.9
v -17.5 -4 -0.9
v -2.5 -5 -1
v -3 -5 -1
v -3 -4.5 -1
v -2.5 -4.5 -1
v -3 -5 -1
v -3.5 -5 -1
v -3.5 -4.5 -1
v -3 -4.5 -1
v -4 -5 -1
v -4.5 -5 -1
v -4.5 -4.5 -1
v -4 -4.5 -1
v -4.5 -5 -1
v -5 -5 -1
v -5 -4.5 -1
v -4.5 -4.5 -1
v -5.5 -5 -1
v -6 -5 -1
v -6 -4.5 -1
v -5.5 -4.5 -1
v -6 -5 -1
v -6.5 -5 -1
v -6.5 -4.5 -1
v -6 -4.5 -1
v -7 -5 -1
v -7.5 -5 -1
v -7.5 -4.5 -1
v -7 -4.5 -1
v -7.5 -5 -1
v -8 -5 -1
v -8 -4.5 -1
v -7.5 -4.5 -1
v -9 -5 -1
v -9.5 -5 -1
v -9.5 -4.5 -1
v -9 -4.5 -1
v -9.5 -5 -1
v -10 -5 -1
v -10 -4.5 -1
v -9.5 -4.5 -1
v -10.5 -5 -1
v -11 -5 -1
v -11 -4.5 -1
v -10.5 -4.5 -1
v -11 -5 -1
v -11.5 -5 -1
v -11.5 -4.5 -1
v -11 -4.5 -1
v -12 -5 -1
v -12.5 -5 -1
v -12.5 -4.5 -1
v -12 -4.5 -1
v -12.5 -5 -1
v -13 -5 -1
v -13 -4.5 -1
v -12.5 -4.5 -1
v -13.5 -5 -1
v -14 -5 -1
v -14 -4.5 -1
v -13.5 -4.5 -1
v -14 -5 -1
v -14.5 -5 -1
v -14.5 -4.5 -1
v -14 -4.5 -1

# Texture cooridinates (Count = 88)
vt 0.08707859 0.2917888
vt 0.1303127 0.2917888
vt 0.1303127 0.3332112
vt 0.08707859 0.3332112
vt 0.1740351 0.2917888
vt 0.2172692 0.2917888
vt 0.2172692 0.3332112
vt 0.1740351 0.3332112
vt 0.08707859 0.2501221
vt 0.1303127 0.2501221
vt 0.1303127 0.2915446
vt 0.08707859 0.2915446
vt 0.1740351 0.2501221
vt 0.2172692 0.2501221
vt 0.2172692 0.2915446
vt 0.1740351 0.2915446
vt 0.08707859 0.2084554
vt 0.1303127 0.2084554
vt 0.1303127 0.2498779
vt 0.08707859 0.2498779
vt 0.1740351 0.2084554
vt 0.2172692 0.2084554
vt 0.2172692 0.2498779
vt 0.1740351 0.2498779
vt 0.08707859 0.8751221
vt 0.1303127 0.8751221
vt 0.1303127 0.9165446
vt 0.08707859 0.9165446
vt 0.1740351 0.8751221
vt 0.2172692 0.8751221
vt 0.2172692 0.9165446
vt 0.1740351 0.9165446
vt 0.2175134 0.8751221
vt 0.2607475 0.8751221
vt 0.2607475 0.9165446
vt 0.2175134 0.9165446
vt 0.2609916 0.8751221
vt 0.3042257 0.8751221
vt 0.3042257 0.9165446
vt 0.2609916 0.9165446
vt 0.08707859 0.1667888
vt 0.1303127 0.1667888
vt 0.1303127 0.2082112
vt 0.08707859 0.2082112
vt 0.1740351 0.1667888
vt 0.2172692 0.1667888
vt 0.2172692 0.2082112
vt 0.1740351 0.2082112
vt 0.1305569 0.7501221
vt 0.173791 0.7501221
vt 0.173791 0.7915446
vt 0.1305569 0.7915446
vt 0.2609916 0.7917888
vt 0.3042257 0.7917888
vt 0.3042257 0.8332112
vt 0.2609916 0.8332112
vt 0.2609916 0.7501221
vt 0.3042257 0.7501221
vt 0.3042257 0.7915446
vt 0.2609916 0.7915446
vt 0.08707859 0.7501221
vt 0.1303127 0.7501221
vt 0.1303127 0.7915446
vt 0.08707859 0.7915446
vt 0.08707859 0.7084554
vt 0.1303127 0.7084554
vt 0.1303127 0.7498779
vt 0.08707859 0.7498779
vt 0.1740351 0.7084554
vt 0.2172692 0.7084554
vt 0.2172692 0.7498779
vt 0.1740351 0.7498779
vt 0.2175134 0.7084554
vt 0.2607475 0.7084554
vt 0.2607475 0.7498779
vt 0.2175134 0.7498779
vt 0.2609916 0.7084554
vt 0.3042257 0.7084554
vt 0.3042257 0.7498779
vt 0.2609916 0.7498779
vt 0.1305569 0.2084554
vt 0.173791 0.2084554
vt 0.173791 0.2498779
vt 0.1305569 0.2498779
vt 0.1305569 0.1667888
vt 0.173791 0.1667888
vt 0.173791 0.2082112
vt 0.1305569 0.2082112

# Normal
vn 0 0 -1

# Mesh description
g Level5_mesh_0001

# Faces
f 1/1/1 2/2/1 3/3/1 4/4/1
f 5/5/1 6/6/1 7/7/1 8/8/1
f 9/1/1 10/2/1 11/3/1 12/4/1
f 13/5/1 14/6/1 15/7/1 16/8/1
f 17/1/1 18/2/1 19/3/1 20/4/1
f 21/5/1 22/6/1 23/7/1 24/8/1
f 25/1/1 26/2/1 27/3/1 28/4/1
f 29/5/1 30/6/1 31/7/1 32/8/1
f 33/1/1 34/2/1 35/3/1 36/4/1
f 37/5/1 38/6/1 39/7/1 40/8/1
f 41/1/1 42/2/1 43/3/1 44/4/1
f 45/5/1 46/6/1 47/7/1 48/8/1
f 49/1/1 50/2/1 51/3/1 52/4/1
f 53/5/1 54/6/1 55/7/1 56/8/1
f 57/1/1 58/2/1 59/3/1 60/4/1
f 61/5/1 62/6/1 63/7/1 64/8/1
f 65/9/1 66/10/1 67/11/1 68/12/1
f 69/13/1 70/14/1 71/15/1 72/16/1
f 73/9/1 74/10/1 75/11/1 76/12/1
f 77/13/1 78/14/1 79/15/1 80/16/1
f 81/9/1 82/10/1 83/11/1 84/12/1
f 85/13/1 86/14/1 87/15/1 88/16/1
f 89/9/1 90/10/1 91/11/1 92/12/1
f 93/13/1 94/14/1 95/15/1 96/16/1
f 97/9/1 98/10/1 99/11/1 100/12/1
f 101/13/1 102/14/1 103/15/1 104/16/1
f 105/9/1 106/10/1 107/11/1 108/12/1
f 109/13/1 110/14/1 111/15/1 112/16/1
f 113/9/1 114/10/1 115/11/1 116/12/1
f 117/13/1 118/14/1 119/15/1 120/16/1
f 121/9/1 122/10/1 123/11/1 124/12/1
f 125/13/1 126/14/1 127/15/1 128/16/1
f 129/17/1 130/18/1 131/19/1 132/20/1
f 133/21/1 134/22/1 135/23/1 136/24/1
f 137/17/1 138/18/1 139/19/1 140/20/1
f 141/21/1 142/22/1 143/23/1 144/24/1
f 145/17/1 146/18/1 147/19/1 148/20/1
f 149/21/1 150/22/1 151/23/1 152/24/1
f 153/17/1 154/18/1 155/19/1 156/20/1
f 157/21/1 158/22/1 159/23/1 160/24/1
f 161/17/1 162/18/1 163/19/1 164/20/1
f 165/21/1 166/22/1 167/23/1 168/24/1
f 169/17/1 170/18/1 171/19/1 172/20/1
f 173/21/1 174/22/1 175/23/1 176/24/1
f 177/17/1 178/18/1 179/19/1 180/20/1
f 181/21/1 182/22/1 183/23/1 184/24/1
f 185/17/1 186/18/1 187/19/1 188/20/1
f 189/21/1 190/22/1 191/23/1 192/24/1
f 193/25/1 194/26/1 195/27/1 196/28/1
f 197/29/1 198/30/1 199/31/1 200/32/1
f 201/33/1 202/34/1 203/35/1 204/36/1
f 205/37/1 206/38/1 207/39/1 208/40/1
f 209/1/1 210/2/1 211/3/1 212/4/1
f 213/5/1 214/6/1 215/7/1 216/8/1
f 217/41/1 218/42/1 219/43/1 220/44/1
f 221/45/1 222/46/1 223/47/1 224/48/1
f 225/41/1 226/42/1 227/43/1 228/44/1
f 229/45/1 230/46/1 231/47/1 232/48/1
f 233/41/1 234/42/1 235/43/1 236/44/1
f 237/45/1 238/46/1 239/47/1 240/48/1
f 241/41/1 242/42/1 243/43/1 244/44/1
f 245/45/1 246/46/1 247/47/1 248/48/1
f 249/41/1 250/42/1 251/43/1 252/44/1
f 253/45/1 254/46/1 255/47/1 256/48/1
f 257/41/1 258/42/1 259/43/1 260/44/1
f 261/45/1 262/46/1 263/47/1 264/48/1
f 265/41/1 266/42/1 267/43/1 268/44/1
f 269/45/1 270/46/1 271/47/1 272/48/1
f 273/41/1 274/42/1 275/43/1 276/44/1
f 277/45/1 278/46/1 279/47/1 280/48/1
f 281/49/1 282/50/1 283/51/1 284/52/1
f 285/53/1 286/54/1 287/55/1 288/56/1
f 289/9/1 290/10/1 291/11/1 292/12/1
f 293/13/1 294/14/1 295/15/1 296/16/1
f 297/49/1 298/50/1 299/51/1 300/52/1
f 301/57/1 302/58/1 303/59/1 304/60/1
f 305/17/1 306/18/1 307/19/1 308/20/1
f 309/21/1 310/22/1 311/23/1 312/24/1
f 313/61/1 314/62/1 315/63/1 316/64/1
f 317/49/1 318/50/1 319/51/1 320/52/1
f 321/49/1 322/50/1 323/51/1 324/52/1
f 325/13/1 326/14/1 327/15/1 328/16/1
f 329/41/1 330/42/1 331/43/1 332/44/1
f 333/45/1 334/46/1 335/47/1 336/48/1
f 337/1/1 338/2/1 339/3/1 340/4/1
f 341/5/1 342/6/1 343/7/1 344/8/1
f 345/1/1 346/2/1 347/3/1 348/4/1
f 349/5/1 350/6/1 351/7/1 352/8/1
f 353/1/1 354/2/1 355/3/1 356/4/1
f 357/5/1 358/6/1 359/7/1 360/8/1
f 361/1/1 362/2/1 363/3/1 364/4/1
f 365/5/1 366/6/1 367/7/1 368/8/1
f 369/1/1 370/2/1 371/3/1 372/4/1
f 373/5/1 374/6/1 375/7/1 376/8/1
f 377/1/1 378/2/1 379/3/1 380/4/1
f 381/5/1 382/6/1 383/7/1 384/8/1
f 385/1/1 386/2/1 387/3/1 388/4/1
f 389/5/1 390/6/1 391/7/1 392/8/1
f 393/1/1 394/2/1 395/3/1 396/4/1
f 397/5/1 398/6/1 399/7/1 400/8/1
f 401/65/1 402/66/1 403/67/1 404/68/1
f 405/69/1 406/70/1 407/71/1 408/72/1
f 409/73/1 410/74/1 411/75/1 412/76/1
f 413/77/1 414/78/1 415/79/1 416/80/1
f 417/9/1 418/10/1 419/11/1 420/12/1
f 421/13/1 422/14/1 423/15/1 424/16/1
f 425/9/1 426/10/1 427/11/1 428/12/1
f 429/13/1 430/14/1 431/15/1 432/16/1
f 433/9/1 434/10/1 435/11/1 436/12/1
f 437/13/1 438/14/1 439/15/1 440/16/1
f 441/9/1 442/10/1 443/11/1 444/12/1
f 445/13/1 446/14/1 447/15/1 448/16/1
f 449/9/1 450/10/1 451/11/1 452/12/1
f 453/13/1 454/14/1 455/15/1 456/16/1
f 457/9/1 458/10/1 459/11/1 460/12/1
f 461/13/1 462/14/1 463/15/1 464/16/1
f 465/9/1 466/10/1 467/11/1 468/12/1
f 469/13/1 470/14/1 471/15/1 472/16/1
f 473/9/1 474/10/1 475/11/1 476/12/1
f 477/13/1 478/14/1 479/15/1 480/16/1
f 481/17/1 482/18/1 483/19/1 484/20/1
f 485/81/1 486/82/1 487/83/1 488/84/1
f 489/81/1 490/82/1 491/83/1 492/84/1
f 493/21/1 494/22/1 495/23/1 496/24/1
f 497/17/1 498/18/1 499/19/1 500/20/1
f 501/21/1 502/22/1 503/23/1 504/24/1
f 505/17/1 506/18/1 507/19/1 508/20/1
f 509/21/1 510/22/1 511/23/1 512/24/1
f 513/17/1 514/18/1 515/19/1 516/20/1
f 517/21/1 518/22/1 519/23/1 520/24/1
f 521/17/1 522/18/1 523/19/1 524/20/1
f 525/21/1 526/22/1 527/23/1 528/24/1
f 529/17/1 530/18/1 531/19/1 532/20/1
f 533/21/1 534/22/1 535/23/1 536/24/1
f 537/17/1 538/18/1 539/19/1 540/20/1
f 541/21/1 542/22/1 543/23/1 544/24/1
f 545/17/1 546/18/1 547/19/1 548/20/1
f 549/21/1 550/22/1 551/23/1 552/24/1
f 553/17/1 554/18/1 555/19/1 556/20/1
f 557/21/1 558/22/1 559/23/1 560/24/1
f 561/41/1 562/42/1 563/43/1 564/44/1
f 565/85/1 566/86/1 567/87/1 568/88/1
f 569/85/1 570/86/1 571/87/1 572/88/1
f 573/45/1 574/46/1 575/47/1 576/48/1
f 577/41/1 578/42/1 579/43/1 580/44/1
f 581/45/1 582/46/1 583/47/1 584/48/1
f 585/41/1 586/42/1 587/43/1 588/44/1
f 589/45/1 590/46/1 591/47/1 592/48/1
f 593/41/1 594/42/1 595/43/1 596/44/1
f 597/45/1 598/46/1 599/47/1 600/48/1
f 601/41/1 602/42/1 603/43/1 604/44/1
f 605/45/1 606/46/1 607/47/1 608/48/1
f 609/41/1 610/42/1 611/43/1 612/44/1
f 613/45/1 614/46/1 615/47/1 616/48/1
f 617/41/1 618/42/1 619/43/1 620/44/1
f 621/45/1 622/46/1 623/47/1 624/48/1
f 625/41/1 626/42/1 627/43/1 628/44/1
f 629/45/1 630/46/1 631/47/1 632/48/1
f 633/41/1 634/42/1 635/43/1 636/44/1
f 637/45/1 638/46/1 639/47/1 640/48/1

