# Tiled2Unity generated file. Do not modify by hand.
# Wavefront file for 'Level5_mesh_0003.obj'

# Vertices (Count = 48)
v -2.5 -1 -0.1
v -3.5 -1 -0.1
v -3.5 0 -0.1
v -2.5 0 -0.1
v -4 -1 -0.1
v -5 -1 -0.1
v -5 0 -0.1
v -4 0 -0.1
v -5.5 -1 -0.1
v -6.5 -1 -0.1
v -6.5 0 -0.1
v -5.5 0 -0.1
v -10.5 -1 -0.1
v -11.5 -1 -0.1
v -11.5 0 -0.1
v -10.5 0 -0.1
v -12 -1 -0.1
v -13 -1 -0.1
v -13 0 -0.1
v -12 0 -0.1
v -13.5 -1 -0.1
v -14.5 -1 -0.1
v -14.5 0 -0.1
v -13.5 0 -0.1
v -2.5 -4 -0.7
v -3.5 -4 -0.7
v -3.5 -3 -0.7
v -2.5 -3 -0.7
v -4 -4 -0.7
v -5 -4 -0.7
v -5 -3 -0.7
v -4 -3 -0.7
v -5.5 -4 -0.7
v -6.5 -4 -0.7
v -6.5 -3 -0.7
v -5.5 -3 -0.7
v -10.5 -4 -0.7
v -11.5 -4 -0.7
v -11.5 -3 -0.7
v -10.5 -3 -0.7
v -12 -4 -0.7
v -13 -4 -0.7
v -13 -3 -0.7
v -12 -3 -0.7
v -13.5 -4 -0.7
v -14.5 -4 -0.7
v -14.5 -3 -0.7
v -13.5 -3 -0.7

# Texture cooridinates (Count = 4)
vt 0.0001220703 0.0001220703
vt 0.9998779 0.0001220703
vt 0.9998779 0.9998779
vt 0.0001220703 0.9998779

# Normal
vn 0 0 -1

# Mesh description
g Level5_mesh_0003

# Faces
f 1/1/1 2/2/1 3/3/1 4/4/1
f 5/1/1 6/2/1 7/3/1 8/4/1
f 9/1/1 10/2/1 11/3/1 12/4/1
f 13/1/1 14/2/1 15/3/1 16/4/1
f 17/1/1 18/2/1 19/3/1 20/4/1
f 21/1/1 22/2/1 23/3/1 24/4/1
f 25/1/1 26/2/1 27/3/1 28/4/1
f 29/1/1 30/2/1 31/3/1 32/4/1
f 33/1/1 34/2/1 35/3/1 36/4/1
f 37/1/1 38/2/1 39/3/1 40/4/1
f 41/1/1 42/2/1 43/3/1 44/4/1
f 45/1/1 46/2/1 47/3/1 48/4/1

