# Tiled2Unity generated file. Do not modify by hand.
# Wavefront file for 'Level9_mesh_0001.obj'

# Vertices (Count = 400)
v -7.5 -0.5 -0.04761905
v -8 -0.5 -0.04761905
v -8 0 -0.04761905
v -7.5 0 -0.04761905
v -8 -0.5 -0.04761905
v -8.5 -0.5 -0.04761905
v -8.5 0 -0.04761905
v -8 0 -0.04761905
v -8.5 -0.5 -0.04761905
v -9 -0.5 -0.04761905
v -9 0 -0.04761905
v -8.5 0 -0.04761905
v -9 -0.5 -0.04761905
v -9.5 -0.5 -0.04761905
v -9.5 0 -0.04761905
v -9 0 -0.04761905
v -6 -1 -0.0952381
v -6.5 -1 -0.0952381
v -6.5 -0.5 -0.0952381
v -6 -0.5 -0.0952381
v -6.5 -1 -0.0952381
v -7 -1 -0.0952381
v -7 -0.5 -0.0952381
v -6.5 -0.5 -0.0952381
v -7.5 -1 -0.0952381
v -8 -1 -0.0952381
v -8 -0.5 -0.0952381
v -7.5 -0.5 -0.0952381
v -9 -1 -0.0952381
v -9.5 -1 -0.0952381
v -9.5 -0.5 -0.0952381
v -9 -0.5 -0.0952381
v -6 -1.5 -0.1428571
v -6.5 -1.5 -0.1428571
v -6.5 -1 -0.1428571
v -6 -1 -0.1428571
v -6.5 -1.5 -0.1428571
v -7 -1.5 -0.1428571
v -7 -1 -0.1428571
v -6.5 -1 -0.1428571
v -7.5 -1.5 -0.1428571
v -8 -1.5 -0.1428571
v -8 -1 -0.1428571
v -7.5 -1 -0.1428571
v -9 -1.5 -0.1428571
v -9.5 -1.5 -0.1428571
v -9.5 -1 -0.1428571
v -9 -1 -0.1428571
v -6 -2 -0.1904762
v -6.5 -2 -0.1904762
v -6.5 -1.5 -0.1904762
v -6 -1.5 -0.1904762
v -6.5 -2 -0.1904762
v -7 -2 -0.1904762
v -7 -1.5 -0.1904762
v -6.5 -1.5 -0.1904762
v -7.5 -2 -0.1904762
v -8 -2 -0.1904762
v -8 -1.5 -0.1904762
v -7.5 -1.5 -0.1904762
v -8 -2 -0.1904762
v -8.5 -2 -0.1904762
v -8.5 -1.5 -0.1904762
v -8 -1.5 -0.1904762
v -8.5 -2 -0.1904762
v -9 -2 -0.1904762
v -9 -1.5 -0.1904762
v -8.5 -1.5 -0.1904762
v -9 -2 -0.1904762
v -9.5 -2 -0.1904762
v -9.5 -1.5 -0.1904762
v -9 -1.5 -0.1904762
v -6 -2.5 -0.2380952
v -6.5 -2.5 -0.2380952
v -6.5 -2 -0.2380952
v -6 -2 -0.2380952
v -6.5 -2.5 -0.2380952
v -7 -2.5 -0.2380952
v -7 -2 -0.2380952
v -6.5 -2 -0.2380952
v -7.5 -2.5 -0.2380952
v -8 -2.5 -0.2380952
v -8 -2 -0.2380952
v -7.5 -2 -0.2380952
v -8 -2.5 -0.2380952
v -8.5 -2.5 -0.2380952
v -8.5 -2 -0.2380952
v -8 -2 -0.2380952
v -8.5 -2.5 -0.2380952
v -9 -2.5 -0.2380952
v -9 -2 -0.2380952
v -8.5 -2 -0.2380952
v -9 -2.5 -0.2380952
v -9.5 -2.5 -0.2380952
v -9.5 -2 -0.2380952
v -9 -2 -0.2380952
v -2.5 -3 -0.2857143
v -3 -3 -0.2857143
v -3 -2.5 -0.2857143
v -2.5 -2.5 -0.2857143
v -3 -3 -0.2857143
v -3.5 -3 -0.2857143
v -3.5 -2.5 -0.2857143
v -3 -2.5 -0.2857143
v -6 -3 -0.2857143
v -6.5 -3 -0.2857143
v -6.5 -2.5 -0.2857143
v -6 -2.5 -0.2857143
v -6.5 -3 -0.2857143
v -7 -3 -0.2857143
v -7 -2.5 -0.2857143
v -6.5 -2.5 -0.2857143
v -2.5 -3.5 -0.3333333
v -3 -3.5 -0.3333333
v -3 -3 -0.3333333
v -2.5 -3 -0.3333333
v -3 -3.5 -0.3333333
v -3.5 -3.5 -0.3333333
v -3.5 -3 -0.3333333
v -3 -3 -0.3333333
v -6 -3.5 -0.3333333
v -6.5 -3.5 -0.3333333
v -6.5 -3 -0.3333333
v -6 -3 -0.3333333
v -6.5 -3.5 -0.3333333
v -7 -3.5 -0.3333333
v -7 -3 -0.3333333
v -6.5 -3 -0.3333333
v -2.5 -4 -0.3809524
v -3 -4 -0.3809524
v -3 -3.5 -0.3809524
v -2.5 -3.5 -0.3809524
v -3 -4 -0.3809524
v -3.5 -4 -0.3809524
v -3.5 -3.5 -0.3809524
v -3 -3.5 -0.3809524
v -6 -4 -0.3809524
v -6.5 -4 -0.3809524
v -6.5 -3.5 -0.3809524
v -6 -3.5 -0.3809524
v -6.5 -4 -0.3809524
v -7 -4 -0.3809524
v -7 -3.5 -0.3809524
v -6.5 -3.5 -0.3809524
v -2.5 -4.5 -0.4285714
v -3 -4.5 -0.4285714
v -3 -4 -0.4285714
v -2.5 -4 -0.4285714
v -3 -4.5 -0.4285714
v -3.5 -4.5 -0.4285714
v -3.5 -4 -0.4285714
v -3 -4 -0.4285714
v -6 -4.5 -0.4285714
v -6.5 -4.5 -0.4285714
v -6.5 -4 -0.4285714
v -6 -4 -0.4285714
v -6.5 -4.5 -0.4285714
v -7 -4.5 -0.4285714
v -7 -4 -0.4285714
v -6.5 -4 -0.4285714
v -2.5 -5 -0.4761905
v -3 -5 -0.4761905
v -3 -4.5 -0.4761905
v -2.5 -4.5 -0.4761905
v -3 -5 -0.4761905
v -3.5 -5 -0.4761905
v -3.5 -4.5 -0.4761905
v -3 -4.5 -0.4761905
v -6 -5 -0.4761905
v -6.5 -5 -0.4761905
v -6.5 -4.5 -0.4761905
v -6 -4.5 -0.4761905
v -6.5 -5 -0.4761905
v -7 -5 -0.4761905
v -7 -4.5 -0.4761905
v -6.5 -4.5 -0.4761905
v -2.5 -5.5 -0.5238096
v -3 -5.5 -0.5238096
v -3 -5 -0.5238096
v -2.5 -5 -0.5238096
v -3 -5.5 -0.5238096
v -3.5 -5.5 -0.5238096
v -3.5 -5 -0.5238096
v -3 -5 -0.5238096
v -6 -5.5 -0.5238096
v -6.5 -5.5 -0.5238096
v -6.5 -5 -0.5238096
v -6 -5 -0.5238096
v -6.5 -5.5 -0.5238096
v -7 -5.5 -0.5238096
v -7 -5 -0.5238096
v -6.5 -5 -0.5238096
v -2.5 -6 -0.5714286
v -3 -6 -0.5714286
v -3 -5.5 -0.5714286
v -2.5 -5.5 -0.5714286
v -3 -6 -0.5714286
v -3.5 -6 -0.5714286
v -3.5 -5.5 -0.5714286
v -3 -5.5 -0.5714286
v -6 -6 -0.5714286
v -6.5 -6 -0.5714286
v -6.5 -5.5 -0.5714286
v -6 -5.5 -0.5714286
v -6.5 -6 -0.5714286
v -7 -6 -0.5714286
v -7 -5.5 -0.5714286
v -6.5 -5.5 -0.5714286
v -2.5 -6.5 -0.6190476
v -3 -6.5 -0.6190476
v -3 -6 -0.6190476
v -2.5 -6 -0.6190476
v -3 -6.5 -0.6190476
v -3.5 -6.5 -0.6190476
v -3.5 -6 -0.6190476
v -3 -6 -0.6190476
v -6 -6.5 -0.6190476
v -6.5 -6.5 -0.6190476
v -6.5 -6 -0.6190476
v -6 -6 -0.6190476
v -6.5 -6.5 -0.6190476
v -7 -6.5 -0.6190476
v -7 -6 -0.6190476
v -6.5 -6 -0.6190476
v -2.5 -7 -0.6666667
v -3 -7 -0.6666667
v -3 -6.5 -0.6666667
v -2.5 -6.5 -0.6666667
v -3 -7 -0.6666667
v -3.5 -7 -0.6666667
v -3.5 -6.5 -0.6666667
v -3 -6.5 -0.6666667
v -6 -7 -0.6666667
v -6.5 -7 -0.6666667
v -6.5 -6.5 -0.6666667
v -6 -6.5 -0.6666667
v -6.5 -7 -0.6666667
v -7 -7 -0.6666667
v -7 -6.5 -0.6666667
v -6.5 -6.5 -0.6666667
v -2.5 -7.5 -0.7142857
v -3 -7.5 -0.7142857
v -3 -7 -0.7142857
v -2.5 -7 -0.7142857
v -3 -7.5 -0.7142857
v -3.5 -7.5 -0.7142857
v -3.5 -7 -0.7142857
v -3 -7 -0.7142857
v -6 -7.5 -0.7142857
v -6.5 -7.5 -0.7142857
v -6.5 -7 -0.7142857
v -6 -7 -0.7142857
v -6.5 -7.5 -0.7142857
v -7 -7.5 -0.7142857
v -7 -7 -0.7142857
v -6.5 -7 -0.7142857
v -2.5 -8 -0.7619048
v -3 -8 -0.7619048
v -3 -7.5 -0.7619048
v -2.5 -7.5 -0.7619048
v -3 -8 -0.7619048
v -3.5 -8 -0.7619048
v -3.5 -7.5 -0.7619048
v -3 -7.5 -0.7619048
v -6 -8 -0.7619048
v -6.5 -8 -0.7619048
v -6.5 -7.5 -0.7619048
v -6 -7.5 -0.7619048
v -6.5 -8 -0.7619048
v -7 -8 -0.7619048
v -7 -7.5 -0.7619048
v -6.5 -7.5 -0.7619048
v 0 -8.5 -0.8095238
v -0.5 -8.5 -0.8095238
v -0.5 -8 -0.8095238
v 0 -8 -0.8095238
v -0.5 -8.5 -0.8095238
v -1 -8.5 -0.8095238
v -1 -8 -0.8095238
v -0.5 -8 -0.8095238
v -1 -8.5 -0.8095238
v -1.5 -8.5 -0.8095238
v -1.5 -8 -0.8095238
v -1 -8 -0.8095238
v -1.5 -8.5 -0.8095238
v -2 -8.5 -0.8095238
v -2 -8 -0.8095238
v -1.5 -8 -0.8095238
v -2.5 -8.5 -0.8095238
v -3 -8.5 -0.8095238
v -3 -8 -0.8095238
v -2.5 -8 -0.8095238
v -3 -8.5 -0.8095238
v -3.5 -8.5 -0.8095238
v -3.5 -8 -0.8095238
v -3 -8 -0.8095238
v -6 -8.5 -0.8095238
v -6.5 -8.5 -0.8095238
v -6.5 -8 -0.8095238
v -6 -8 -0.8095238
v -6.5 -8.5 -0.8095238
v -7 -8.5 -0.8095238
v -7 -8 -0.8095238
v -6.5 -8 -0.8095238
v 0 -9 -0.8571429
v -0.5 -9 -0.8571429
v -0.5 -8.5 -0.8571429
v 0 -8.5 -0.8571429
v -0.5 -9 -0.8571429
v -1 -9 -0.8571429
v -1 -8.5 -0.8571429
v -0.5 -8.5 -0.8571429
v -1 -9 -0.8571429
v -1.5 -9 -0.8571429
v -1.5 -8.5 -0.8571429
v -1 -8.5 -0.8571429
v -1.5 -9 -0.8571429
v -2 -9 -0.8571429
v -2 -8.5 -0.8571429
v -1.5 -8.5 -0.8571429
v -2.5 -9 -0.8571429
v -3 -9 -0.8571429
v -3 -8.5 -0.8571429
v -2.5 -8.5 -0.8571429
v -3 -9 -0.8571429
v -3.5 -9 -0.8571429
v -3.5 -8.5 -0.8571429
v -3 -8.5 -0.8571429
v 0 -9.5 -0.9047619
v -0.5 -9.5 -0.9047619
v -0.5 -9 -0.9047619
v 0 -9 -0.9047619
v -0.5 -9.5 -0.9047619
v -1 -9.5 -0.9047619
v -1 -9 -0.9047619
v -0.5 -9 -0.9047619
v -1 -9.5 -0.9047619
v -1.5 -9.5 -0.9047619
v -1.5 -9 -0.9047619
v -1 -9 -0.9047619
v -1.5 -9.5 -0.9047619
v -2 -9.5 -0.9047619
v -2 -9 -0.9047619
v -1.5 -9 -0.9047619
v -2.5 -9.5 -0.9047619
v -3 -9.5 -0.9047619
v -3 -9 -0.9047619
v -2.5 -9 -0.9047619
v -3 -9.5 -0.9047619
v -3.5 -9.5 -0.9047619
v -3.5 -9 -0.9047619
v -3 -9 -0.9047619
v 0 -10 -0.952381
v -0.5 -10 -0.952381
v -0.5 -9.5 -0.952381
v 0 -9.5 -0.952381
v -0.5 -10 -0.952381
v -1 -10 -0.952381
v -1 -9.5 -0.952381
v -0.5 -9.5 -0.952381
v -1 -10 -0.952381
v -1.5 -10 -0.952381
v -1.5 -9.5 -0.952381
v -1 -9.5 -0.952381
v -1.5 -10 -0.952381
v -2 -10 -0.952381
v -2 -9.5 -0.952381
v -1.5 -9.5 -0.952381
v -2.5 -10 -0.952381
v -3 -10 -0.952381
v -3 -9.5 -0.952381
v -2.5 -9.5 -0.952381
v -3 -10 -0.952381
v -3.5 -10 -0.952381
v -3.5 -9.5 -0.952381
v -3 -9.5 -0.952381
v 0 -10.5 -1
v -0.5 -10.5 -1
v -0.5 -10 -1
v 0 -10 -1
v -0.5 -10.5 -1
v -1 -10.5 -1
v -1 -10 -1
v -0.5 -10 -1
v -1 -10.5 -1
v -1.5 -10.5 -1
v -1.5 -10 -1
v -1 -10 -1
v -1.5 -10.5 -1
v -2 -10.5 -1
v -2 -10 -1
v -1.5 -10 -1
v -2.5 -10.5 -1
v -3 -10.5 -1
v -3 -10 -1
v -2.5 -10 -1
v -3 -10.5 -1
v -3.5 -10.5 -1
v -3.5 -10 -1
v -3 -10 -1

# Texture cooridinates (Count = 92)
vt 0.08707859 0.8751221
vt 0.1303127 0.8751221
vt 0.1303127 0.9165446
vt 0.08707859 0.9165446
vt 0.1305569 0.8751221
vt 0.173791 0.8751221
vt 0.173791 0.9165446
vt 0.1305569 0.9165446
vt 0.1740351 0.8751221
vt 0.2172692 0.8751221
vt 0.2172692 0.9165446
vt 0.1740351 0.9165446
vt 0.2609916 0.8751221
vt 0.3042257 0.8751221
vt 0.3042257 0.9165446
vt 0.2609916 0.9165446
vt 0.08707859 0.8334554
vt 0.1303127 0.8334554
vt 0.1303127 0.8748779
vt 0.08707859 0.8748779
vt 0.2609916 0.8334554
vt 0.3042257 0.8334554
vt 0.3042257 0.8748779
vt 0.2609916 0.8748779
vt 0.08707859 0.7917888
vt 0.1303127 0.7917888
vt 0.1303127 0.8332112
vt 0.08707859 0.8332112
vt 0.2609916 0.7917888
vt 0.3042257 0.7917888
vt 0.3042257 0.8332112
vt 0.2609916 0.8332112
vt 0.08707859 0.7084554
vt 0.1303127 0.7084554
vt 0.1303127 0.7498779
vt 0.08707859 0.7498779
vt 0.1740351 0.7084554
vt 0.2172692 0.7084554
vt 0.2172692 0.7498779
vt 0.1740351 0.7498779
vt 0.2175134 0.7084554
vt 0.2607475 0.7084554
vt 0.2607475 0.7498779
vt 0.2175134 0.7498779
vt 0.2609916 0.7084554
vt 0.3042257 0.7084554
vt 0.3042257 0.7498779
vt 0.2609916 0.7498779
vt 0.08707859 0.7501221
vt 0.1303127 0.7501221
vt 0.1303127 0.7915446
vt 0.08707859 0.7915446
vt 0.2609916 0.7501221
vt 0.3042257 0.7501221
vt 0.3042257 0.7915446
vt 0.2609916 0.7915446
vt 0.1305569 0.6667887
vt 0.173791 0.6667887
vt 0.173791 0.7082113
vt 0.1305569 0.7082113
vt 0.1740351 0.6667887
vt 0.2172692 0.6667887
vt 0.2172692 0.7082113
vt 0.1740351 0.7082113
vt 0.2175134 0.6667887
vt 0.2607475 0.6667887
vt 0.2607475 0.7082113
vt 0.2175134 0.7082113
vt 0.2609916 0.6667887
vt 0.3042257 0.6667887
vt 0.3042257 0.7082113
vt 0.2609916 0.7082113
vt 0.08707859 0.6667887
vt 0.1303127 0.6667887
vt 0.1303127 0.7082113
vt 0.08707859 0.7082113
vt 0.1305569 0.8334554
vt 0.173791 0.8334554
vt 0.173791 0.8748779
vt 0.1305569 0.8748779
vt 0.1740351 0.8334554
vt 0.2172692 0.8334554
vt 0.2172692 0.8748779
vt 0.1740351 0.8748779
vt 0.1305569 0.7917888
vt 0.173791 0.7917888
vt 0.173791 0.8332112
vt 0.1305569 0.8332112
vt 0.1740351 0.7917888
vt 0.2172692 0.7917888
vt 0.2172692 0.8332112
vt 0.1740351 0.8332112

# Normal
vn 0 0 -1

# Mesh description
g Level9_mesh_0001

# Faces
f 1/1/1 2/2/1 3/3/1 4/4/1
f 5/5/1 6/6/1 7/7/1 8/8/1
f 9/9/1 10/10/1 11/11/1 12/12/1
f 13/13/1 14/14/1 15/15/1 16/16/1
f 17/1/1 18/2/1 19/3/1 20/4/1
f 21/13/1 22/14/1 23/15/1 24/16/1
f 25/17/1 26/18/1 27/19/1 28/20/1
f 29/21/1 30/22/1 31/23/1 32/24/1
f 33/17/1 34/18/1 35/19/1 36/20/1
f 37/21/1 38/22/1 39/23/1 40/24/1
f 41/25/1 42/26/1 43/27/1 44/28/1
f 45/29/1 46/30/1 47/31/1 48/32/1
f 49/25/1 50/26/1 51/27/1 52/28/1
f 53/29/1 54/30/1 55/31/1 56/32/1
f 57/33/1 58/34/1 59/35/1 60/36/1
f 61/37/1 62/38/1 63/39/1 64/40/1
f 65/41/1 66/42/1 67/43/1 68/44/1
f 69/45/1 70/46/1 71/47/1 72/48/1
f 73/49/1 74/50/1 75/51/1 76/52/1
f 77/53/1 78/54/1 79/55/1 80/56/1
f 81/57/1 82/58/1 83/59/1 84/60/1
f 85/61/1 86/62/1 87/63/1 88/64/1
f 89/65/1 90/66/1 91/67/1 92/68/1
f 93/69/1 94/70/1 95/71/1 96/72/1
f 97/1/1 98/2/1 99/3/1 100/4/1
f 101/13/1 102/14/1 103/15/1 104/16/1
f 105/17/1 106/18/1 107/19/1 108/20/1
f 109/21/1 110/22/1 111/23/1 112/24/1
f 113/17/1 114/18/1 115/19/1 116/20/1
f 117/21/1 118/22/1 119/23/1 120/24/1
f 121/25/1 122/26/1 123/27/1 124/28/1
f 125/29/1 126/30/1 127/31/1 128/32/1
f 129/25/1 130/26/1 131/27/1 132/28/1
f 133/29/1 134/30/1 135/31/1 136/32/1
f 137/49/1 138/50/1 139/51/1 140/52/1
f 141/53/1 142/54/1 143/55/1 144/56/1
f 145/49/1 146/50/1 147/51/1 148/52/1
f 149/53/1 150/54/1 151/55/1 152/56/1
f 153/17/1 154/18/1 155/19/1 156/20/1
f 157/21/1 158/22/1 159/23/1 160/24/1
f 161/17/1 162/18/1 163/19/1 164/20/1
f 165/21/1 166/22/1 167/23/1 168/24/1
f 169/25/1 170/26/1 171/27/1 172/28/1
f 173/29/1 174/30/1 175/31/1 176/32/1
f 177/25/1 178/26/1 179/27/1 180/28/1
f 181/29/1 182/30/1 183/31/1 184/32/1
f 185/49/1 186/50/1 187/51/1 188/52/1
f 189/53/1 190/54/1 191/55/1 192/56/1
f 193/49/1 194/50/1 195/51/1 196/52/1
f 197/53/1 198/54/1 199/55/1 200/56/1
f 201/17/1 202/18/1 203/19/1 204/20/1
f 205/21/1 206/22/1 207/23/1 208/24/1
f 209/17/1 210/18/1 211/19/1 212/20/1
f 213/21/1 214/22/1 215/23/1 216/24/1
f 217/25/1 218/26/1 219/27/1 220/28/1
f 221/21/1 222/22/1 223/23/1 224/24/1
f 225/25/1 226/26/1 227/27/1 228/28/1
f 229/29/1 230/30/1 231/31/1 232/32/1
f 233/49/1 234/50/1 235/51/1 236/52/1
f 237/29/1 238/30/1 239/31/1 240/32/1
f 241/49/1 242/50/1 243/51/1 244/52/1
f 245/53/1 246/54/1 247/55/1 248/56/1
f 249/49/1 250/50/1 251/51/1 252/52/1
f 253/53/1 254/54/1 255/55/1 256/56/1
f 257/17/1 258/18/1 259/19/1 260/20/1
f 261/21/1 262/22/1 263/23/1 264/24/1
f 265/33/1 266/34/1 267/35/1 268/36/1
f 269/45/1 270/46/1 271/47/1 272/48/1
f 273/1/1 274/2/1 275/3/1 276/4/1
f 277/5/1 278/6/1 279/7/1 280/8/1
f 281/9/1 282/10/1 283/11/1 284/12/1
f 285/13/1 286/14/1 287/15/1 288/16/1
f 289/25/1 290/26/1 291/27/1 292/28/1
f 293/21/1 294/22/1 295/23/1 296/24/1
f 297/73/1 298/74/1 299/75/1 300/76/1
f 301/69/1 302/70/1 303/71/1 304/72/1
f 305/17/1 306/18/1 307/19/1 308/20/1
f 309/77/1 310/78/1 311/79/1 312/80/1
f 313/81/1 314/82/1 315/83/1 316/84/1
f 317/21/1 318/22/1 319/23/1 320/24/1
f 321/49/1 322/50/1 323/51/1 324/52/1
f 325/29/1 326/30/1 327/31/1 328/32/1
f 329/25/1 330/26/1 331/27/1 332/28/1
f 333/85/1 334/86/1 335/87/1 336/88/1
f 337/89/1 338/90/1 339/91/1 340/92/1
f 341/29/1 342/30/1 343/31/1 344/32/1
f 345/49/1 346/50/1 347/51/1 348/52/1
f 349/53/1 350/54/1 351/55/1 352/56/1
f 353/33/1 354/34/1 355/35/1 356/36/1
f 357/37/1 358/38/1 359/39/1 360/40/1
f 361/41/1 362/42/1 363/43/1 364/44/1
f 365/45/1 366/46/1 367/47/1 368/48/1
f 369/33/1 370/34/1 371/35/1 372/36/1
f 373/45/1 374/46/1 375/47/1 376/48/1
f 377/57/1 378/58/1 379/59/1 380/60/1
f 381/61/1 382/62/1 383/63/1 384/64/1
f 385/65/1 386/66/1 387/67/1 388/68/1
f 389/69/1 390/70/1 391/71/1 392/72/1
f 393/73/1 394/74/1 395/75/1 396/76/1
f 397/69/1 398/70/1 399/71/1 400/72/1

