# Tiled2Unity generated file. Do not modify by hand.
# Wavefront file for 'Level6_mesh_0005.obj'

# Vertices (Count = 32)
v -4 -6 -0.4074074
v -5 -6 -0.4074074
v -5 -5 -0.4074074
v -4 -5 -0.4074074
v -4 -6.5 -0.4444444
v -5 -6.5 -0.4444444
v -5 -5.5 -0.4444444
v -4 -5.5 -0.4444444
v -4 -9 -0.6296296
v -5 -9 -0.6296296
v -5 -8 -0.6296296
v -4 -8 -0.6296296
v -4 -9.5 -0.6666667
v -5 -9.5 -0.6666667
v -5 -8.5 -0.6666667
v -4 -8.5 -0.6666667
v -1 -10.5 -0.7407407
v -2 -10.5 -0.7407407
v -2 -9.5 -0.7407407
v -1 -9.5 -0.7407407
v -1 -11 -0.7777778
v -2 -11 -0.7777778
v -2 -10 -0.7777778
v -1 -10 -0.7777778
v -1 -11.5 -0.8148148
v -2 -11.5 -0.8148148
v -2 -10.5 -0.8148148
v -1 -10.5 -0.8148148
v -4 -11.5 -0.8148148
v -5 -11.5 -0.8148148
v -5 -10.5 -0.8148148
v -4 -10.5 -0.8148148

# Texture cooridinates (Count = 4)
vt 0.0001220703 0.0001220703
vt 0.9998779 0.0001220703
vt 0.9998779 0.9998779
vt 0.0001220703 0.9998779

# Normal
vn 0 0 -1

# Mesh description
g Level6_mesh_0005

# Faces
f 1/1/1 2/2/1 3/3/1 4/4/1
f 5/1/1 6/2/1 7/3/1 8/4/1
f 9/1/1 10/2/1 11/3/1 12/4/1
f 13/1/1 14/2/1 15/3/1 16/4/1
f 17/1/1 18/2/1 19/3/1 20/4/1
f 21/1/1 22/2/1 23/3/1 24/4/1
f 25/1/1 26/2/1 27/3/1 28/4/1
f 29/1/1 30/2/1 31/3/1 32/4/1

