# Tiled2Unity generated file. Do not modify by hand.
# Wavefront file for 'SCIENC_mesh_0001.obj'

# Vertices (Count = 304)
v 0 -0.5 0
v -0.5 -0.5 0
v -0.5 0 0
v 0 0 0
v -0.5 -0.5 0
v -1 -0.5 0
v -1 0 0
v -0.5 0 0
v -1 -0.5 0
v -1.5 -0.5 0
v -1.5 0 0
v -1 0 0
v -1.5 -0.5 0
v -2 -0.5 0
v -2 0 0
v -1.5 0 0
v -2 -0.5 0
v -2.5 -0.5 0
v -2.5 0 0
v -2 0 0
v -2.5 -0.5 0
v -3 -0.5 0
v -3 0 0
v -2.5 0 0
v -3 -0.5 0
v -3.5 -0.5 0
v -3.5 0 0
v -3 0 0
v -3.5 -0.5 0
v -4 -0.5 0
v -4 0 0
v -3.5 0 0
v -4 -0.5 0
v -4.5 -0.5 0
v -4.5 0 0
v -4 0 0
v -4.5 -0.5 0
v -5 -0.5 0
v -5 0 0
v -4.5 0 0
v 0 -1 0
v -0.5 -1 0
v -0.5 -0.5 0
v 0 -0.5 0
v -0.5 -1 0
v -1 -1 0
v -1 -0.5 0
v -0.5 -0.5 0
v -1 -1 0
v -1.5 -1 0
v -1.5 -0.5 0
v -1 -0.5 0
v -1.5 -1 0
v -2 -1 0
v -2 -0.5 0
v -1.5 -0.5 0
v -2 -1 0
v -2.5 -1 0
v -2.5 -0.5 0
v -2 -0.5 0
v -2.5 -1 0
v -3 -1 0
v -3 -0.5 0
v -2.5 -0.5 0
v -3 -1 0
v -3.5 -1 0
v -3.5 -0.5 0
v -3 -0.5 0
v -3.5 -1 0
v -4 -1 0
v -4 -0.5 0
v -3.5 -0.5 0
v -4 -1 0
v -4.5 -1 0
v -4.5 -0.5 0
v -4 -0.5 0
v -4.5 -1 0
v -5 -1 0
v -5 -0.5 0
v -4.5 -0.5 0
v 0 -1.5 0
v -0.5 -1.5 0
v -0.5 -1 0
v 0 -1 0
v -0.5 -1.5 0
v -1 -1.5 0
v -1 -1 0
v -0.5 -1 0
v -4 -1.5 0
v -4.5 -1.5 0
v -4.5 -1 0
v -4 -1 0
v -4.5 -1.5 0
v -5 -1.5 0
v -5 -1 0
v -4.5 -1 0
v 0 -2 0
v -0.5 -2 0
v -0.5 -1.5 0
v 0 -1.5 0
v -0.5 -2 0
v -1 -2 0
v -1 -1.5 0
v -0.5 -1.5 0
v -4 -2 0
v -4.5 -2 0
v -4.5 -1.5 0
v -4 -1.5 0
v -4.5 -2 0
v -5 -2 0
v -5 -1.5 0
v -4.5 -1.5 0
v 0 -2.5 0
v -0.5 -2.5 0
v -0.5 -2 0
v 0 -2 0
v -0.5 -2.5 0
v -1 -2.5 0
v -1 -2 0
v -0.5 -2 0
v -4 -2.5 0
v -4.5 -2.5 0
v -4.5 -2 0
v -4 -2 0
v -4.5 -2.5 0
v -5 -2.5 0
v -5 -2 0
v -4.5 -2 0
v 0 -3 0
v -0.5 -3 0
v -0.5 -2.5 0
v 0 -2.5 0
v -0.5 -3 0
v -1 -3 0
v -1 -2.5 0
v -0.5 -2.5 0
v -4 -3 0
v -4.5 -3 0
v -4.5 -2.5 0
v -4 -2.5 0
v -4.5 -3 0
v -5 -3 0
v -5 -2.5 0
v -4.5 -2.5 0
v 0 -3.5 0
v -0.5 -3.5 0
v -0.5 -3 0
v 0 -3 0
v -0.5 -3.5 0
v -1 -3.5 0
v -1 -3 0
v -0.5 -3 0
v -4 -3.5 0
v -4.5 -3.5 0
v -4.5 -3 0
v -4 -3 0
v -4.5 -3.5 0
v -5 -3.5 0
v -5 -3 0
v -4.5 -3 0
v 0 -4 0
v -0.5 -4 0
v -0.5 -3.5 0
v 0 -3.5 0
v -0.5 -4 0
v -1 -4 0
v -1 -3.5 0
v -0.5 -3.5 0
v -4 -4 0
v -4.5 -4 0
v -4.5 -3.5 0
v -4 -3.5 0
v -4.5 -4 0
v -5 -4 0
v -5 -3.5 0
v -4.5 -3.5 0
v 0 -4.5 0
v -0.5 -4.5 0
v -0.5 -4 0
v 0 -4 0
v -0.5 -4.5 0
v -1 -4.5 0
v -1 -4 0
v -0.5 -4 0
v -4 -4.5 0
v -4.5 -4.5 0
v -4.5 -4 0
v -4 -4 0
v -4.5 -4.5 0
v -5 -4.5 0
v -5 -4 0
v -4.5 -4 0
v 0 -5 0
v -0.5 -5 0
v -0.5 -4.5 0
v 0 -4.5 0
v -0.5 -5 0
v -1 -5 0
v -1 -4.5 0
v -0.5 -4.5 0
v -4 -5 0
v -4.5 -5 0
v -4.5 -4.5 0
v -4 -4.5 0
v -4.5 -5 0
v -5 -5 0
v -5 -4.5 0
v -4.5 -4.5 0
v 0 -5.5 0
v -0.5 -5.5 0
v -0.5 -5 0
v 0 -5 0
v -0.5 -5.5 0
v -1 -5.5 0
v -1 -5 0
v -0.5 -5 0
v -4 -5.5 0
v -4.5 -5.5 0
v -4.5 -5 0
v -4 -5 0
v -4.5 -5.5 0
v -5 -5.5 0
v -5 -5 0
v -4.5 -5 0
v 0 -6 0
v -0.5 -6 0
v -0.5 -5.5 0
v 0 -5.5 0
v -0.5 -6 0
v -1 -6 0
v -1 -5.5 0
v -0.5 -5.5 0
v -4 -6 0
v -4.5 -6 0
v -4.5 -5.5 0
v -4 -5.5 0
v -4.5 -6 0
v -5 -6 0
v -5 -5.5 0
v -4.5 -5.5 0
v 0 -6.5 0
v -0.5 -6.5 0
v -0.5 -6 0
v 0 -6 0
v -0.5 -6.5 0
v -1 -6.5 0
v -1 -6 0
v -0.5 -6 0
v -4 -6.5 0
v -4.5 -6.5 0
v -4.5 -6 0
v -4 -6 0
v -4.5 -6.5 0
v -5 -6.5 0
v -5 -6 0
v -4.5 -6 0
v 0 -7 0
v -0.5 -7 0
v -0.5 -6.5 0
v 0 -6.5 0
v -0.5 -7 0
v -1 -7 0
v -1 -6.5 0
v -0.5 -6.5 0
v -4 -7 0
v -4.5 -7 0
v -4.5 -6.5 0
v -4 -6.5 0
v -4.5 -7 0
v -5 -7 0
v -5 -6.5 0
v -4.5 -6.5 0
v 0 -7.5 0
v -0.5 -7.5 0
v -0.5 -7 0
v 0 -7 0
v -0.5 -7.5 0
v -1 -7.5 0
v -1 -7 0
v -0.5 -7 0
v -4 -7.5 0
v -4.5 -7.5 0
v -4.5 -7 0
v -4 -7 0
v -4.5 -7.5 0
v -5 -7.5 0
v -5 -7 0
v -4.5 -7 0
v 0 -8 0
v -0.5 -8 0
v -0.5 -7.5 0
v 0 -7.5 0
v -0.5 -8 0
v -1 -8 0
v -1 -7.5 0
v -0.5 -7.5 0
v -4 -8 0
v -4.5 -8 0
v -4.5 -7.5 0
v -4 -7.5 0
v -4.5 -8 0
v -5 -8 0
v -5 -7.5 0
v -4.5 -7.5 0

# Texture cooridinates (Count = 44)
vt 0.0001220703 0.7501221
vt 0.2498779 0.7501221
vt 0.2498779 0.9998779
vt 0.0001220703 0.9998779
vt 0.2501221 0.7501221
vt 0.4998779 0.7501221
vt 0.4998779 0.9998779
vt 0.2501221 0.9998779
vt 0.7501221 0.7501221
vt 0.9998779 0.7501221
vt 0.9998779 0.9998779
vt 0.7501221 0.9998779
vt 0.0001220703 0.5001221
vt 0.2498779 0.5001221
vt 0.2498779 0.7498779
vt 0.0001220703 0.7498779
vt 0.2501221 0.5001221
vt 0.4998779 0.5001221
vt 0.4998779 0.7498779
vt 0.2501221 0.7498779
vt 0.2501221 0.2501221
vt 0.4998779 0.2501221
vt 0.4998779 0.4998779
vt 0.2501221 0.4998779
vt 0.7501221 0.5001221
vt 0.9998779 0.5001221
vt 0.9998779 0.7498779
vt 0.7501221 0.7498779
vt 0.0001220703 0.2501221
vt 0.2498779 0.2501221
vt 0.2498779 0.4998779
vt 0.0001220703 0.4998779
vt 0.7501221 0.2501221
vt 0.9998779 0.2501221
vt 0.9998779 0.4998779
vt 0.7501221 0.4998779
vt 0.0001220703 0.0001220703
vt 0.2498779 0.0001220703
vt 0.2498779 0.2498779
vt 0.0001220703 0.2498779
vt 0.7501221 0.0001220703
vt 0.9998779 0.0001220703
vt 0.9998779 0.2498779
vt 0.7501221 0.2498779

# Normal
vn 0 0 -1

# Mesh description
g SCIENC_mesh_0001

# Faces
f 1/1/1 2/2/1 3/3/1 4/4/1
f 5/5/1 6/6/1 7/7/1 8/8/1
f 9/5/1 10/6/1 11/7/1 12/8/1
f 13/5/1 14/6/1 15/7/1 16/8/1
f 17/5/1 18/6/1 19/7/1 20/8/1
f 21/5/1 22/6/1 23/7/1 24/8/1
f 25/5/1 26/6/1 27/7/1 28/8/1
f 29/5/1 30/6/1 31/7/1 32/8/1
f 33/5/1 34/6/1 35/7/1 36/8/1
f 37/9/1 38/10/1 39/11/1 40/12/1
f 41/13/1 42/14/1 43/15/1 44/16/1
f 45/17/1 46/18/1 47/19/1 48/20/1
f 49/21/1 50/22/1 51/23/1 52/24/1
f 53/21/1 54/22/1 55/23/1 56/24/1
f 57/21/1 58/22/1 59/23/1 60/24/1
f 61/21/1 62/22/1 63/23/1 64/24/1
f 65/21/1 66/22/1 67/23/1 68/24/1
f 69/21/1 70/22/1 71/23/1 72/24/1
f 73/13/1 74/14/1 75/15/1 76/16/1
f 77/25/1 78/26/1 79/27/1 80/28/1
f 81/13/1 82/14/1 83/15/1 84/16/1
f 85/25/1 86/26/1 87/27/1 88/28/1
f 89/13/1 90/14/1 91/15/1 92/16/1
f 93/25/1 94/26/1 95/27/1 96/28/1
f 97/13/1 98/14/1 99/15/1 100/16/1
f 101/25/1 102/26/1 103/27/1 104/28/1
f 105/13/1 106/14/1 107/15/1 108/16/1
f 109/25/1 110/26/1 111/27/1 112/28/1
f 113/13/1 114/14/1 115/15/1 116/16/1
f 117/25/1 118/26/1 119/27/1 120/28/1
f 121/13/1 122/14/1 123/15/1 124/16/1
f 125/25/1 126/26/1 127/27/1 128/28/1
f 129/13/1 130/14/1 131/15/1 132/16/1
f 133/25/1 134/26/1 135/27/1 136/28/1
f 137/13/1 138/14/1 139/15/1 140/16/1
f 141/25/1 142/26/1 143/27/1 144/28/1
f 145/13/1 146/14/1 147/15/1 148/16/1
f 149/25/1 150/26/1 151/27/1 152/28/1
f 153/13/1 154/14/1 155/15/1 156/16/1
f 157/25/1 158/26/1 159/27/1 160/28/1
f 161/13/1 162/14/1 163/15/1 164/16/1
f 165/25/1 166/26/1 167/27/1 168/28/1
f 169/13/1 170/14/1 171/15/1 172/16/1
f 173/25/1 174/26/1 175/27/1 176/28/1
f 177/13/1 178/14/1 179/15/1 180/16/1
f 181/25/1 182/26/1 183/27/1 184/28/1
f 185/13/1 186/14/1 187/15/1 188/16/1
f 189/25/1 190/26/1 191/27/1 192/28/1
f 193/13/1 194/14/1 195/15/1 196/16/1
f 197/25/1 198/26/1 199/27/1 200/28/1
f 201/13/1 202/14/1 203/15/1 204/16/1
f 205/25/1 206/26/1 207/27/1 208/28/1
f 209/13/1 210/14/1 211/15/1 212/16/1
f 213/25/1 214/26/1 215/27/1 216/28/1
f 217/13/1 218/14/1 219/15/1 220/16/1
f 221/25/1 222/26/1 223/27/1 224/28/1
f 225/13/1 226/14/1 227/15/1 228/16/1
f 229/25/1 230/26/1 231/27/1 232/28/1
f 233/13/1 234/14/1 235/15/1 236/16/1
f 237/25/1 238/26/1 239/27/1 240/28/1
f 241/13/1 242/14/1 243/15/1 244/16/1
f 245/25/1 246/26/1 247/27/1 248/28/1
f 249/13/1 250/14/1 251/15/1 252/16/1
f 253/25/1 254/26/1 255/27/1 256/28/1
f 257/13/1 258/14/1 259/15/1 260/16/1
f 261/25/1 262/26/1 263/27/1 264/28/1
f 265/13/1 266/14/1 267/15/1 268/16/1
f 269/25/1 270/26/1 271/27/1 272/28/1
f 273/29/1 274/30/1 275/31/1 276/32/1
f 277/33/1 278/34/1 279/35/1 280/36/1
f 281/29/1 282/30/1 283/31/1 284/32/1
f 285/33/1 286/34/1 287/35/1 288/36/1
f 289/37/1 290/38/1 291/39/1 292/40/1
f 293/41/1 294/42/1 295/43/1 296/44/1
f 297/37/1 298/38/1 299/39/1 300/40/1
f 301/41/1 302/42/1 303/43/1 304/44/1

