# Tiled2Unity generated file. Do not modify by hand.
# Wavefront file for 'Level10_mesh_0001.obj'

# Vertices (Count = 312)
v -1.5 -1 -0.1
v -2 -1 -0.1
v -2 -0.5 -0.1
v -1.5 -0.5 -0.1
v -2 -1 -0.1
v -2.5 -1 -0.1
v -2.5 -0.5 -0.1
v -2 -0.5 -0.1
v -2.5 -1 -0.1
v -3 -1 -0.1
v -3 -0.5 -0.1
v -2.5 -0.5 -0.1
v -3 -1 -0.1
v -3.5 -1 -0.1
v -3.5 -0.5 -0.1
v -3 -0.5 -0.1
v -3.5 -1 -0.1
v -4 -1 -0.1
v -4 -0.5 -0.1
v -3.5 -0.5 -0.1
v -4 -1 -0.1
v -4.5 -1 -0.1
v -4.5 -0.5 -0.1
v -4 -0.5 -0.1
v -1.5 -1.5 -0.15
v -2 -1.5 -0.15
v -2 -1 -0.15
v -1.5 -1 -0.15
v -2 -1.5 -0.15
v -2.5 -1.5 -0.15
v -2.5 -1 -0.15
v -2 -1 -0.15
v -2.5 -1.5 -0.15
v -3 -1.5 -0.15
v -3 -1 -0.15
v -2.5 -1 -0.15
v -3 -1.5 -0.15
v -3.5 -1.5 -0.15
v -3.5 -1 -0.15
v -3 -1 -0.15
v -3.5 -1.5 -0.15
v -4 -1.5 -0.15
v -4 -1 -0.15
v -3.5 -1 -0.15
v -4 -1.5 -0.15
v -4.5 -1.5 -0.15
v -4.5 -1 -0.15
v -4 -1 -0.15
v -1.5 -2 -0.2
v -2 -2 -0.2
v -2 -1.5 -0.2
v -1.5 -1.5 -0.2
v -2 -2 -0.2
v -2.5 -2 -0.2
v -2.5 -1.5 -0.2
v -2 -1.5 -0.2
v -2.5 -2 -0.2
v -3 -2 -0.2
v -3 -1.5 -0.2
v -2.5 -1.5 -0.2
v -3 -2 -0.2
v -3.5 -2 -0.2
v -3.5 -1.5 -0.2
v -3 -1.5 -0.2
v -3.5 -2 -0.2
v -4 -2 -0.2
v -4 -1.5 -0.2
v -3.5 -1.5 -0.2
v -4 -2 -0.2
v -4.5 -2 -0.2
v -4.5 -1.5 -0.2
v -4 -1.5 -0.2
v -1.5 -2.5 -0.25
v -2 -2.5 -0.25
v -2 -2 -0.25
v -1.5 -2 -0.25
v -2 -2.5 -0.25
v -2.5 -2.5 -0.25
v -2.5 -2 -0.25
v -2 -2 -0.25
v -2.5 -2.5 -0.25
v -3 -2.5 -0.25
v -3 -2 -0.25
v -2.5 -2 -0.25
v -3 -2.5 -0.25
v -3.5 -2.5 -0.25
v -3.5 -2 -0.25
v -3 -2 -0.25
v -3.5 -2.5 -0.25
v -4 -2.5 -0.25
v -4 -2 -0.25
v -3.5 -2 -0.25
v -4 -2.5 -0.25
v -4.5 -2.5 -0.25
v -4.5 -2 -0.25
v -4 -2 -0.25
v -1.5 -3 -0.3
v -2 -3 -0.3
v -2 -2.5 -0.3
v -1.5 -2.5 -0.3
v -2 -3 -0.3
v -2.5 -3 -0.3
v -2.5 -2.5 -0.3
v -2 -2.5 -0.3
v -2.5 -3 -0.3
v -3 -3 -0.3
v -3 -2.5 -0.3
v -2.5 -2.5 -0.3
v -3 -3 -0.3
v -3.5 -3 -0.3
v -3.5 -2.5 -0.3
v -3 -2.5 -0.3
v -3.5 -3 -0.3
v -4 -3 -0.3
v -4 -2.5 -0.3
v -3.5 -2.5 -0.3
v -4 -3 -0.3
v -4.5 -3 -0.3
v -4.5 -2.5 -0.3
v -4 -2.5 -0.3
v 0 -3.5 -0.35
v -0.5 -3.5 -0.35
v -0.5 -3 -0.35
v 0 -3 -0.35
v -0.5 -3.5 -0.35
v -1 -3.5 -0.35
v -1 -3 -0.35
v -0.5 -3 -0.35
v -5 -3.5 -0.35
v -5.5 -3.5 -0.35
v -5.5 -3 -0.35
v -5 -3 -0.35
v -5.5 -3.5 -0.35
v -6 -3.5 -0.35
v -6 -3 -0.35
v -5.5 -3 -0.35
v -1.5 -5 -0.5
v -2 -5 -0.5
v -2 -4.5 -0.5
v -1.5 -4.5 -0.5
v -2 -5 -0.5
v -2.5 -5 -0.5
v -2.5 -4.5 -0.5
v -2 -4.5 -0.5
v -2.5 -5 -0.5
v -3 -5 -0.5
v -3 -4.5 -0.5
v -2.5 -4.5 -0.5
v -3 -5 -0.5
v -3.5 -5 -0.5
v -3.5 -4.5 -0.5
v -3 -4.5 -0.5
v -0.5 -5.5 -0.55
v -1 -5.5 -0.55
v -1 -5 -0.55
v -0.5 -5 -0.55
v -1.5 -5.5 -0.55
v -2 -5.5 -0.55
v -2 -5 -0.55
v -1.5 -5 -0.55
v -2 -5.5 -0.55
v -2.5 -5.5 -0.55
v -2.5 -5 -0.55
v -2 -5 -0.55
v -2.5 -5.5 -0.55
v -3 -5.5 -0.55
v -3 -5 -0.55
v -2.5 -5 -0.55
v -3 -5.5 -0.55
v -3.5 -5.5 -0.55
v -3.5 -5 -0.55
v -3 -5 -0.55
v -0.5 -6 -0.6
v -1 -6 -0.6
v -1 -5.5 -0.6
v -0.5 -5.5 -0.6
v -1.5 -6 -0.6
v -2 -6 -0.6
v -2 -5.5 -0.6
v -1.5 -5.5 -0.6
v -2 -6 -0.6
v -2.5 -6 -0.6
v -2.5 -5.5 -0.6
v -2 -5.5 -0.6
v -2.5 -6 -0.6
v -3 -6 -0.6
v -3 -5.5 -0.6
v -2.5 -5.5 -0.6
v -3 -6 -0.6
v -3.5 -6 -0.6
v -3.5 -5.5 -0.6
v -3 -5.5 -0.6
v -1.5 -8 -0.8
v -2 -8 -0.8
v -2 -7.5 -0.8
v -1.5 -7.5 -0.8
v -2 -8 -0.8
v -2.5 -8 -0.8
v -2.5 -7.5 -0.8
v -2 -7.5 -0.8
v -2.5 -8 -0.8
v -3 -8 -0.8
v -3 -7.5 -0.8
v -2.5 -7.5 -0.8
v -3 -8 -0.8
v -3.5 -8 -0.8
v -3.5 -7.5 -0.8
v -3 -7.5 -0.8
v -3.5 -8 -0.8
v -4 -8 -0.8
v -4 -7.5 -0.8
v -3.5 -7.5 -0.8
v -4 -8 -0.8
v -4.5 -8 -0.8
v -4.5 -7.5 -0.8
v -4 -7.5 -0.8
v 0 -8.5 -0.85
v -0.5 -8.5 -0.85
v -0.5 -8 -0.85
v 0 -8 -0.85
v -0.5 -8.5 -0.85
v -1 -8.5 -0.85
v -1 -8 -0.85
v -0.5 -8 -0.85
v -2.5 -8.5 -0.85
v -3 -8.5 -0.85
v -3 -8 -0.85
v -2.5 -8 -0.85
v -3 -8.5 -0.85
v -3.5 -8.5 -0.85
v -3.5 -8 -0.85
v -3 -8 -0.85
v -3.5 -8.5 -0.85
v -4 -8.5 -0.85
v -4 -8 -0.85
v -3.5 -8 -0.85
v -4 -8.5 -0.85
v -4.5 -8.5 -0.85
v -4.5 -8 -0.85
v -4 -8 -0.85
v -5 -8.5 -0.85
v -5.5 -8.5 -0.85
v -5.5 -8 -0.85
v -5 -8 -0.85
v -5.5 -8.5 -0.85
v -6 -8.5 -0.85
v -6 -8 -0.85
v -5.5 -8 -0.85
v -2.5 -9 -0.9
v -3 -9 -0.9
v -3 -8.5 -0.9
v -2.5 -8.5 -0.9
v -3 -9 -0.9
v -3.5 -9 -0.9
v -3.5 -8.5 -0.9
v -3 -8.5 -0.9
v -3.5 -9 -0.9
v -4 -9 -0.9
v -4 -8.5 -0.9
v -3.5 -8.5 -0.9
v -4 -9 -0.9
v -4.5 -9 -0.9
v -4.5 -8.5 -0.9
v -4 -8.5 -0.9
v -1.5 -9.5 -0.95
v -2 -9.5 -0.95
v -2 -9 -0.95
v -1.5 -9 -0.95
v -2 -9.5 -0.95
v -2.5 -9.5 -0.95
v -2.5 -9 -0.95
v -2 -9 -0.95
v -2.5 -9.5 -0.95
v -3 -9.5 -0.95
v -3 -9 -0.95
v -2.5 -9 -0.95
v -3 -9.5 -0.95
v -3.5 -9.5 -0.95
v -3.5 -9 -0.95
v -3 -9 -0.95
v -3.5 -9.5 -0.95
v -4 -9.5 -0.95
v -4 -9 -0.95
v -3.5 -9 -0.95
v -4 -9.5 -0.95
v -4.5 -9.5 -0.95
v -4.5 -9 -0.95
v -4 -9 -0.95
v -1.5 -10 -1
v -2 -10 -1
v -2 -9.5 -1
v -1.5 -9.5 -1
v -2 -10 -1
v -2.5 -10 -1
v -2.5 -9.5 -1
v -2 -9.5 -1
v -2.5 -10 -1
v -3 -10 -1
v -3 -9.5 -1
v -2.5 -9.5 -1
v -3 -10 -1
v -3.5 -10 -1
v -3.5 -9.5 -1
v -3 -9.5 -1
v -3.5 -10 -1
v -4 -10 -1
v -4 -9.5 -1
v -3.5 -9.5 -1
v -4 -10 -1
v -4.5 -10 -1
v -4.5 -9.5 -1
v -4 -9.5 -1

# Texture cooridinates (Count = 136)
vt 0.08707859 0.8751221
vt 0.1303127 0.8751221
vt 0.1303127 0.9165446
vt 0.08707859 0.9165446
vt 0.1305569 0.8751221
vt 0.173791 0.8751221
vt 0.173791 0.9165446
vt 0.1305569 0.9165446
vt 0.1740351 0.8751221
vt 0.2172692 0.8751221
vt 0.2172692 0.9165446
vt 0.1740351 0.9165446
vt 0.2175134 0.8751221
vt 0.2607475 0.8751221
vt 0.2607475 0.9165446
vt 0.2175134 0.9165446
vt 0.2609916 0.8751221
vt 0.3042257 0.8751221
vt 0.3042257 0.9165446
vt 0.2609916 0.9165446
vt 0.08707859 0.8334554
vt 0.1303127 0.8334554
vt 0.1303127 0.8748779
vt 0.08707859 0.8748779
vt 0.1305569 0.8334554
vt 0.173791 0.8334554
vt 0.173791 0.8748779
vt 0.1305569 0.8748779
vt 0.1740351 0.8334554
vt 0.2172692 0.8334554
vt 0.2172692 0.8748779
vt 0.1740351 0.8748779
vt 0.2175134 0.8334554
vt 0.2607475 0.8334554
vt 0.2607475 0.8748779
vt 0.2175134 0.8748779
vt 0.2609916 0.8334554
vt 0.3042257 0.8334554
vt 0.3042257 0.8748779
vt 0.2609916 0.8748779
vt 0.08707859 0.7501221
vt 0.1303127 0.7501221
vt 0.1303127 0.7915446
vt 0.08707859 0.7915446
vt 0.1305569 0.7501221
vt 0.173791 0.7501221
vt 0.173791 0.7915446
vt 0.1305569 0.7915446
vt 0.1740351 0.7501221
vt 0.2172692 0.7501221
vt 0.2172692 0.7915446
vt 0.1740351 0.7915446
vt 0.2175134 0.7501221
vt 0.2607475 0.7501221
vt 0.2607475 0.7915446
vt 0.2175134 0.7915446
vt 0.2609916 0.7501221
vt 0.3042257 0.7501221
vt 0.3042257 0.7915446
vt 0.2609916 0.7915446
vt 0.08707859 0.7084554
vt 0.1303127 0.7084554
vt 0.1303127 0.7498779
vt 0.08707859 0.7498779
vt 0.1305569 0.7084554
vt 0.173791 0.7084554
vt 0.173791 0.7498779
vt 0.1305569 0.7498779
vt 0.1740351 0.7084554
vt 0.2172692 0.7084554
vt 0.2172692 0.7498779
vt 0.1740351 0.7498779
vt 0.2175134 0.7084554
vt 0.2607475 0.7084554
vt 0.2607475 0.7498779
vt 0.2175134 0.7498779
vt 0.2609916 0.7084554
vt 0.3042257 0.7084554
vt 0.3042257 0.7498779
vt 0.2609916 0.7498779
vt 0.08707859 0.6667887
vt 0.1303127 0.6667887
vt 0.1303127 0.7082113
vt 0.08707859 0.7082113
vt 0.1305569 0.6667887
vt 0.173791 0.6667887
vt 0.173791 0.7082113
vt 0.1305569 0.7082113
vt 0.1740351 0.6667887
vt 0.2172692 0.6667887
vt 0.2172692 0.7082113
vt 0.1740351 0.7082113
vt 0.2175134 0.6667887
vt 0.2607475 0.6667887
vt 0.2607475 0.7082113
vt 0.2175134 0.7082113
vt 0.2609916 0.6667887
vt 0.3042257 0.6667887
vt 0.3042257 0.7082113
vt 0.2609916 0.7082113
vt 0.08707859 0.2084554
vt 0.1303127 0.2084554
vt 0.1303127 0.2498779
vt 0.08707859 0.2498779
vt 0.1305569 0.2084554
vt 0.173791 0.2084554
vt 0.173791 0.2498779
vt 0.1305569 0.2498779
vt 0.08707859 0.5417887
vt 0.1303127 0.5417887
vt 0.1303127 0.5832113
vt 0.08707859 0.5832113
vt 0.1305569 0.5417887
vt 0.173791 0.5417887
vt 0.173791 0.5832113
vt 0.1305569 0.5832113
vt 0.04360033 0.5001221
vt 0.08683445 0.5001221
vt 0.08683445 0.5415446
vt 0.04360033 0.5415446
vt 0.08707859 0.5001221
vt 0.1303127 0.5001221
vt 0.1303127 0.5415446
vt 0.08707859 0.5415446
vt 0.1305569 0.5001221
vt 0.173791 0.5001221
vt 0.173791 0.5415446
vt 0.1305569 0.5415446
vt 0.04360033 0.4584554
vt 0.08683445 0.4584554
vt 0.08683445 0.4998779
vt 0.04360033 0.4998779
vt 0.1305569 0.4584554
vt 0.173791 0.4584554
vt 0.173791 0.4998779
vt 0.1305569 0.4998779

# Normal
vn 0 0 -1

# Mesh description
g Level10_mesh_0001

# Faces
f 1/1/1 2/2/1 3/3/1 4/4/1
f 5/5/1 6/6/1 7/7/1 8/8/1
f 9/9/1 10/10/1 11/11/1 12/12/1
f 13/13/1 14/14/1 15/15/1 16/16/1
f 17/13/1 18/14/1 19/15/1 20/16/1
f 21/17/1 22/18/1 23/19/1 24/20/1
f 25/21/1 26/22/1 27/23/1 28/24/1
f 29/25/1 30/26/1 31/27/1 32/28/1
f 33/29/1 34/30/1 35/31/1 36/32/1
f 37/33/1 38/34/1 39/35/1 40/36/1
f 41/33/1 42/34/1 43/35/1 44/36/1
f 45/37/1 46/38/1 47/39/1 48/40/1
f 49/41/1 50/42/1 51/43/1 52/44/1
f 53/45/1 54/46/1 55/47/1 56/48/1
f 57/49/1 58/50/1 59/51/1 60/52/1
f 61/53/1 62/54/1 63/55/1 64/56/1
f 65/53/1 66/54/1 67/55/1 68/56/1
f 69/57/1 70/58/1 71/59/1 72/60/1
f 73/61/1 74/62/1 75/63/1 76/64/1
f 77/65/1 78/66/1 79/67/1 80/68/1
f 81/69/1 82/70/1 83/71/1 84/72/1
f 85/73/1 86/74/1 87/75/1 88/76/1
f 89/73/1 90/74/1 91/75/1 92/76/1
f 93/77/1 94/78/1 95/79/1 96/80/1
f 97/81/1 98/82/1 99/83/1 100/84/1
f 101/85/1 102/86/1 103/87/1 104/88/1
f 105/89/1 106/90/1 107/91/1 108/92/1
f 109/93/1 110/94/1 111/95/1 112/96/1
f 113/93/1 114/94/1 115/95/1 116/96/1
f 117/97/1 118/98/1 119/99/1 120/100/1
f 121/101/1 122/102/1 123/103/1 124/104/1
f 125/105/1 126/106/1 127/107/1 128/108/1
f 129/101/1 130/102/1 131/103/1 132/104/1
f 133/105/1 134/106/1 135/107/1 136/108/1
f 137/109/1 138/110/1 139/111/1 140/112/1
f 141/113/1 142/114/1 143/115/1 144/116/1
f 145/41/1 146/42/1 147/43/1 148/44/1
f 149/57/1 150/58/1 151/59/1 152/60/1
f 153/117/1 154/118/1 155/119/1 156/120/1
f 157/121/1 158/122/1 159/123/1 160/124/1
f 161/125/1 162/126/1 163/127/1 164/128/1
f 165/61/1 166/62/1 167/63/1 168/64/1
f 169/77/1 170/78/1 171/79/1 172/80/1
f 173/129/1 174/130/1 175/131/1 176/132/1
f 177/133/1 178/134/1 179/135/1 180/136/1
f 181/133/1 182/134/1 183/135/1 184/136/1
f 185/101/1 186/102/1 187/103/1 188/104/1
f 189/105/1 190/106/1 191/107/1 192/108/1
f 193/1/1 194/2/1 195/3/1 196/4/1
f 197/5/1 198/6/1 199/7/1 200/8/1
f 201/9/1 202/10/1 203/11/1 204/12/1
f 205/13/1 206/14/1 207/15/1 208/16/1
f 209/13/1 210/14/1 211/15/1 212/16/1
f 213/17/1 214/18/1 215/19/1 216/20/1
f 217/101/1 218/102/1 219/103/1 220/104/1
f 221/105/1 222/106/1 223/107/1 224/108/1
f 225/29/1 226/30/1 227/31/1 228/32/1
f 229/33/1 230/34/1 231/35/1 232/36/1
f 233/33/1 234/34/1 235/35/1 236/36/1
f 237/37/1 238/38/1 239/39/1 240/40/1
f 241/101/1 242/102/1 243/103/1 244/104/1
f 245/105/1 246/106/1 247/107/1 248/108/1
f 249/49/1 250/50/1 251/51/1 252/52/1
f 253/53/1 254/54/1 255/55/1 256/56/1
f 257/53/1 258/54/1 259/55/1 260/56/1
f 261/57/1 262/58/1 263/59/1 264/60/1
f 265/61/1 266/62/1 267/63/1 268/64/1
f 269/65/1 270/66/1 271/67/1 272/68/1
f 273/69/1 274/70/1 275/71/1 276/72/1
f 277/73/1 278/74/1 279/75/1 280/76/1
f 281/73/1 282/74/1 283/75/1 284/76/1
f 285/77/1 286/78/1 287/79/1 288/80/1
f 289/81/1 290/82/1 291/83/1 292/84/1
f 293/85/1 294/86/1 295/87/1 296/88/1
f 297/89/1 298/90/1 299/91/1 300/92/1
f 301/93/1 302/94/1 303/95/1 304/96/1
f 305/93/1 306/94/1 307/95/1 308/96/1
f 309/97/1 310/98/1 311/99/1 312/100/1

