# Tiled2Unity generated file. Do not modify by hand.
# Wavefront file for 'Level10_mesh_0003.obj'

# Vertices (Count = 24)
v -2.5 -1 -0.05
v -3.5 -1 -0.05
v -3.5 0 -0.05
v -2.5 0 -0.05
v -2.5 -1.5 -0.1
v -3.5 -1.5 -0.1
v -3.5 -0.5 -0.1
v -2.5 -0.5 -0.1
v -2.5 -2 -0.15
v -3.5 -2 -0.15
v -3.5 -1 -0.15
v -2.5 -1 -0.15
v -2.5 -8.5 -0.8
v -3.5 -8.5 -0.8
v -3.5 -7.5 -0.8
v -2.5 -7.5 -0.8
v -2.5 -9 -0.85
v -3.5 -9 -0.85
v -3.5 -8 -0.85
v -2.5 -8 -0.85
v -2.5 -9.5 -0.9
v -3.5 -9.5 -0.9
v -3.5 -8.5 -0.9
v -2.5 -8.5 -0.9

# Texture cooridinates (Count = 4)
vt 0.0001220703 0.0001220703
vt 0.9998779 0.0001220703
vt 0.9998779 0.9998779
vt 0.0001220703 0.9998779

# Normal
vn 0 0 -1

# Mesh description
g Level10_mesh_0003

# Faces
f 1/1/1 2/2/1 3/3/1 4/4/1
f 5/1/1 6/2/1 7/3/1 8/4/1
f 9/1/1 10/2/1 11/3/1 12/4/1
f 13/1/1 14/2/1 15/3/1 16/4/1
f 17/1/1 18/2/1 19/3/1 20/4/1
f 21/1/1 22/2/1 23/3/1 24/4/1

