# Tiled2Unity generated file. Do not modify by hand.
# Wavefront file for 'Level12_mesh_0001.obj'

# Vertices (Count = 128)
v 0 -0.5 -0.05882353
v -0.5 -0.5 -0.05882353
v -0.5 0 -0.05882353
v 0 0 -0.05882353
v -0.5 -0.5 -0.05882353
v -1 -0.5 -0.05882353
v -1 0 -0.05882353
v -0.5 0 -0.05882353
v -6 -0.5 -0.05882353
v -6.5 -0.5 -0.05882353
v -6.5 0 -0.05882353
v -6 0 -0.05882353
v -6.5 -0.5 -0.05882353
v -7 -0.5 -0.05882353
v -7 0 -0.05882353
v -6.5 0 -0.05882353
v 0 -1 -0.1176471
v -0.5 -1 -0.1176471
v -0.5 -0.5 -0.1176471
v 0 -0.5 -0.1176471
v -0.5 -1 -0.1176471
v -1 -1 -0.1176471
v -1 -0.5 -0.1176471
v -0.5 -0.5 -0.1176471
v -6 -1 -0.1176471
v -6.5 -1 -0.1176471
v -6.5 -0.5 -0.1176471
v -6 -0.5 -0.1176471
v -6.5 -1 -0.1176471
v -7 -1 -0.1176471
v -7 -0.5 -0.1176471
v -6.5 -0.5 -0.1176471
v 0 -1.5 -0.1764706
v -0.5 -1.5 -0.1764706
v -0.5 -1 -0.1764706
v 0 -1 -0.1764706
v -0.5 -1.5 -0.1764706
v -1 -1.5 -0.1764706
v -1 -1 -0.1764706
v -0.5 -1 -0.1764706
v -6 -1.5 -0.1764706
v -6.5 -1.5 -0.1764706
v -6.5 -1 -0.1764706
v -6 -1 -0.1764706
v -6.5 -1.5 -0.1764706
v -7 -1.5 -0.1764706
v -7 -1 -0.1764706
v -6.5 -1 -0.1764706
v -2.5 -5 -0.5882353
v -3 -5 -0.5882353
v -3 -4.5 -0.5882353
v -2.5 -4.5 -0.5882353
v -3 -5 -0.5882353
v -3.5 -5 -0.5882353
v -3.5 -4.5 -0.5882353
v -3 -4.5 -0.5882353
v -3.5 -5 -0.5882353
v -4 -5 -0.5882353
v -4 -4.5 -0.5882353
v -3.5 -4.5 -0.5882353
v -4 -5 -0.5882353
v -4.5 -5 -0.5882353
v -4.5 -4.5 -0.5882353
v -4 -4.5 -0.5882353
v -2.5 -5.5 -0.6470588
v -3 -5.5 -0.6470588
v -3 -5 -0.6470588
v -2.5 -5 -0.6470588
v -3 -5.5 -0.6470588
v -3.5 -5.5 -0.6470588
v -3.5 -5 -0.6470588
v -3 -5 -0.6470588
v -3.5 -5.5 -0.6470588
v -4 -5.5 -0.6470588
v -4 -5 -0.6470588
v -3.5 -5 -0.6470588
v -4 -5.5 -0.6470588
v -4.5 -5.5 -0.6470588
v -4.5 -5 -0.6470588
v -4 -5 -0.6470588
v 0 -7.5 -0.8823529
v -0.5 -7.5 -0.8823529
v -0.5 -7 -0.8823529
v 0 -7 -0.8823529
v -0.5 -7.5 -0.8823529
v -1 -7.5 -0.8823529
v -1 -7 -0.8823529
v -0.5 -7 -0.8823529
v -3 -7.5 -0.8823529
v -3.5 -7.5 -0.8823529
v -3.5 -7 -0.8823529
v -3 -7 -0.8823529
v -3.5 -7.5 -0.8823529
v -4 -7.5 -0.8823529
v -4 -7 -0.8823529
v -3.5 -7 -0.8823529
v 0 -8 -0.9411765
v -0.5 -8 -0.9411765
v -0.5 -7.5 -0.9411765
v 0 -7.5 -0.9411765
v -0.5 -8 -0.9411765
v -1 -8 -0.9411765
v -1 -7.5 -0.9411765
v -0.5 -7.5 -0.9411765
v -3 -8 -0.9411765
v -3.5 -8 -0.9411765
v -3.5 -7.5 -0.9411765
v -3 -7.5 -0.9411765
v -3.5 -8 -0.9411765
v -4 -8 -0.9411765
v -4 -7.5 -0.9411765
v -3.5 -7.5 -0.9411765
v 0 -8.5 -1
v -0.5 -8.5 -1
v -0.5 -8 -1
v 0 -8 -1
v -0.5 -8.5 -1
v -1 -8.5 -1
v -1 -8 -1
v -0.5 -8 -1
v -3 -8.5 -1
v -3.5 -8.5 -1
v -3.5 -8 -1
v -3 -8 -1
v -3.5 -8.5 -1
v -4 -8.5 -1
v -4 -8 -1
v -3.5 -8 -1

# Texture cooridinates (Count = 48)
vt 0.08707859 0.8751221
vt 0.1303127 0.8751221
vt 0.1303127 0.9165446
vt 0.08707859 0.9165446
vt 0.2609916 0.8751221
vt 0.3042257 0.8751221
vt 0.3042257 0.9165446
vt 0.2609916 0.9165446
vt 0.08707859 0.7084554
vt 0.1303127 0.7084554
vt 0.1303127 0.7498779
vt 0.08707859 0.7498779
vt 0.2609916 0.7084554
vt 0.3042257 0.7084554
vt 0.3042257 0.7498779
vt 0.2609916 0.7498779
vt 0.08707859 0.6667887
vt 0.1303127 0.6667887
vt 0.1303127 0.7082113
vt 0.08707859 0.7082113
vt 0.1305569 0.6667887
vt 0.173791 0.6667887
vt 0.173791 0.7082113
vt 0.1305569 0.7082113
vt 0.08707859 0.2084554
vt 0.1303127 0.2084554
vt 0.1303127 0.2498779
vt 0.08707859 0.2498779
vt 0.1305569 0.2084554
vt 0.173791 0.2084554
vt 0.173791 0.2498779
vt 0.1305569 0.2498779
vt 0.1740351 0.2084554
vt 0.2172692 0.2084554
vt 0.2172692 0.2498779
vt 0.1740351 0.2498779
vt 0.08707859 0.1667888
vt 0.1303127 0.1667888
vt 0.1303127 0.2082112
vt 0.08707859 0.2082112
vt 0.1305569 0.1667888
vt 0.173791 0.1667888
vt 0.173791 0.2082112
vt 0.1305569 0.2082112
vt 0.1740351 0.1667888
vt 0.2172692 0.1667888
vt 0.2172692 0.2082112
vt 0.1740351 0.2082112

# Normal
vn 0 0 -1

# Mesh description
g Level12_mesh_0001

# Faces
f 1/1/1 2/2/1 3/3/1 4/4/1
f 5/5/1 6/6/1 7/7/1 8/8/1
f 9/1/1 10/2/1 11/3/1 12/4/1
f 13/5/1 14/6/1 15/7/1 16/8/1
f 17/9/1 18/10/1 19/11/1 20/12/1
f 21/13/1 22/14/1 23/15/1 24/16/1
f 25/9/1 26/10/1 27/11/1 28/12/1
f 29/13/1 30/14/1 31/15/1 32/16/1
f 33/17/1 34/18/1 35/19/1 36/20/1
f 37/21/1 38/22/1 39/23/1 40/24/1
f 41/17/1 42/18/1 43/19/1 44/20/1
f 45/21/1 46/22/1 47/23/1 48/24/1
f 49/25/1 50/26/1 51/27/1 52/28/1
f 53/25/1 54/26/1 55/27/1 56/28/1
f 57/29/1 58/30/1 59/31/1 60/32/1
f 61/33/1 62/34/1 63/35/1 64/36/1
f 65/37/1 66/38/1 67/39/1 68/40/1
f 69/37/1 70/38/1 71/39/1 72/40/1
f 73/41/1 74/42/1 75/43/1 76/44/1
f 77/45/1 78/46/1 79/47/1 80/48/1
f 81/1/1 82/2/1 83/3/1 84/4/1
f 85/5/1 86/6/1 87/7/1 88/8/1
f 89/1/1 90/2/1 91/3/1 92/4/1
f 93/5/1 94/6/1 95/7/1 96/8/1
f 97/9/1 98/10/1 99/11/1 100/12/1
f 101/13/1 102/14/1 103/15/1 104/16/1
f 105/9/1 106/10/1 107/11/1 108/12/1
f 109/13/1 110/14/1 111/15/1 112/16/1
f 113/17/1 114/18/1 115/19/1 116/20/1
f 117/21/1 118/22/1 119/23/1 120/24/1
f 121/17/1 122/18/1 123/19/1 124/20/1
f 125/21/1 126/22/1 127/23/1 128/24/1

