# Tiled2Unity generated file. Do not modify by hand.
# Wavefront file for 'Level2_mesh_0006.obj'

# Vertices (Count = 12)
v -3 -5 -0.4090909
v -4 -5 -0.4090909
v -4 -4 -0.4090909
v -3 -4 -0.4090909
v -3 -5.5 -0.4545455
v -4 -5.5 -0.4545455
v -4 -4.5 -0.4545455
v -3 -4.5 -0.4545455
v -3 -6 -0.5
v -4 -6 -0.5
v -4 -5 -0.5
v -3 -5 -0.5

# Texture cooridinates (Count = 4)
vt 0.0001220703 0.0001220703
vt 0.9998779 0.0001220703
vt 0.9998779 0.9998779
vt 0.0001220703 0.9998779

# Normal
vn 0 0 -1

# Mesh description
g Level2_mesh_0006

# Faces
f 1/1/1 2/2/1 3/3/1 4/4/1
f 5/1/1 6/2/1 7/3/1 8/4/1
f 9/1/1 10/2/1 11/3/1 12/4/1

